<?xml version="1.0" encoding="utf-8"?>
<!-- Generator: Adobe Illustrator 22.0.0, SVG Export Plug-In . SVG Version: 6.00 Build 0)  -->
<svg version="1.1" id="master-artboard" xmlns="http://www.w3.org/2000/svg" xmlns:xlink="http://www.w3.org/1999/xlink" x="0px"
	 y="0px" viewBox="0 0 1400 1400" style="enable-background:new 0 0 1400 1400;" xml:space="preserve">
<style type="text/css">
	.st0{opacity:0.2;enable-background:new    ;}
	.st1{fill:#FFFFFF;}
	.st2{fill:#4C90E2;}
	.st3{opacity:5.000000e-02;fill:#070707;enable-background:new    ;}
	.st4{fill:#BF7300;}
	.st5{fill:#DEEDFE;}
	.st6{fill:#C6C201;}
	.st7{opacity:0.1;fill:#070707;enable-background:new    ;}
	.st8{fill:#F3BB52;}
	.st9{fill:#EA9E32;}
	.st10{fill:#DC6552;}
	.st11{fill:#BB493F;}
	.st12{fill:#D9B769;}
	.st13{fill:#C9A95E;}
	.st14{fill:none;}
	.st15{font-family:'ArialMT';}
	.st16{font-size:28.0522px;}
	.st17{font-size:14.6155px;}
	.st18{fill:#6B6D6D;}
	.st19{fill:#202121;}
	.st20{fill:#F2D0A4;}
	.st21{fill:#70413E;}
	.st22{fill:#FDD900;}
	.st23{fill:#F3D613;}
	.st24{fill:#799900;}
	.st25{fill:#9DCC27;}
	.st26{fill:#F79046;}
	.st27{fill:#D97028;}
	.st28{fill:#E2332B;}
	.st29{opacity:0.2;fill:#FFFFFF;enable-background:new    ;}
	.st30{fill:#F0AE7A;}
	.st31{fill:#DD838C;}
</style>
<g transform="matrix(1, 0, 0, 1, 2.842170943040401e-14, 7.105427357601002e-15)">
	<path class="st0" d="M1400,976.9l-114.3-174.3l-87.3-226.8c-3.6-9.3-9-17.4-15.7-24c-0.4-0.4-0.8-0.8-1.2-1.1
		c-3.6-3.4-7.6-6.4-11.8-8.9c-0.5-0.3-0.9-0.6-1.4-0.8c-1.9-1.1-3.8-2-5.8-2.9c-0.5-0.2-1-0.4-1.5-0.6c-1-0.4-2-0.8-3-1.2
		c-0.5-0.2-1-0.4-1.5-0.5c-1.5-0.5-3.1-1-4.7-1.4c-2.6-0.7-5.3-1.2-8-1.6c-2.7-0.4-5.5-0.5-8.2-0.6c-8.3-0.1-16.7,1.4-25,4.6l0,0
		c-35,13.5-52.5,52.8-39,87.9l31.9,82.8c-9-14.5-20.5-27.2-33.8-37.7c-0.6-0.5-1.2-0.9-1.8-1.4c-4.2-3.2-8.5-6.1-13-8.8
		c-0.9-0.6-1.8-1.1-2.7-1.7c-0.1-0.1-0.3-0.2-0.4-0.2c-0.9-0.6-1.7-1.1-2.6-1.7c-0.2-0.1-0.3-0.2-0.5-0.3c-0.8-0.6-1.7-1.2-2.5-1.8
		c-0.1-0.1-0.2-0.2-0.4-0.3c-0.9-0.6-1.7-1.3-2.6-1.9l0,0c-0.9-0.7-1.7-1.3-2.6-2c-0.1-0.1-0.2-0.1-0.3-0.2c-0.8-0.7-1.6-1.3-2.4-2
		c-0.1-0.1-0.2-0.2-0.4-0.3c-0.8-0.7-1.6-1.4-2.3-2c-0.1-0.1-0.2-0.2-0.3-0.3c-0.8-0.7-1.6-1.5-2.4-2.2l0,0
		c-0.8-0.8-1.6-1.5-2.4-2.3c-0.1-0.1-0.1-0.1-0.2-0.2c-0.8-0.8-1.5-1.5-2.2-2.3c-0.1-0.1-0.2-0.2-0.3-0.3c-0.7-0.8-1.5-1.6-2.2-2.3
		c-0.1-0.1-0.1-0.2-0.2-0.2c-1.5-1.7-3-3.4-4.4-5.2c0,0,0,0,0-0.1c-0.7-0.9-1.4-1.7-2-2.6c-0.1-0.1-0.1-0.2-0.2-0.2
		c-0.7-0.9-1.3-1.7-1.9-2.6c-0.1-0.1-0.1-0.2-0.2-0.2c-0.7-0.9-1.3-1.8-1.9-2.7l2.6-1.5c0.4-0.3,0.8-0.6,1.1-0.9
		c0.5-0.6,0.9-1.3,1.1-2.1c0.1-0.3,0.1-0.6,0.1-0.9c0.1-0.9-0.2-1.9-0.7-2.8l-7.1-11.9c-0.2-0.3-0.4-0.6-0.6-0.8
		c-1.5-1.7-4.1-2.1-6.2-0.9l-62.8,37.4c-2.3,1.4-3.1,4.4-1.7,6.8l7.1,11.9c1.4,2.3,4.4,3.1,6.8,1.7l2.6-1.5
		c8.6,16.7,13.5,35,14.3,53.8l0,0c1,24,8,47.5,20.3,68.1l12.7,21.4l16,27l-3-2.7l0,0c-0.5-0.4-0.9-0.8-1.4-1.2
		c-0.1-0.1-0.1-0.1-0.2-0.2c-0.5-0.4-0.9-0.7-1.4-1.1c-0.1-0.1-0.2-0.1-0.3-0.2c-0.5-0.3-0.9-0.7-1.4-1c-0.1-0.1-0.2-0.1-0.2-0.2
		c-0.5-0.3-1-0.7-1.5-1l0,0c-0.5-0.3-1-0.6-1.6-0.9c-0.1,0-0.2-0.1-0.2-0.1c-0.5-0.3-1-0.5-1.5-0.8c-0.1,0-0.2-0.1-0.3-0.1
		c-0.5-0.2-1-0.5-1.5-0.7c-0.1,0-0.2-0.1-0.2-0.1c-0.5-0.2-1.1-0.5-1.6-0.7l0,0c-0.5-0.2-1.1-0.4-1.7-0.6c-0.1,0-0.2-0.1-0.2-0.1
		c-0.5-0.2-1.1-0.3-1.6-0.5c-0.1,0-0.2-0.1-0.3-0.1c-0.5-0.2-1.1-0.3-1.6-0.4c-0.1,0-0.2,0-0.3-0.1c-0.6-0.1-1.1-0.3-1.7-0.4l0,0
		c-0.6-0.1-1.1-0.2-1.7-0.3c-0.1,0-0.2,0-0.2,0c-0.6-0.1-1.1-0.2-1.7-0.2c-0.1,0-0.2,0-0.3,0c-0.6-0.1-1.1-0.1-1.7-0.2
		c-0.1,0-0.2,0-0.3,0c-0.6,0-1.2-0.1-1.7-0.1l0,0c-0.6,0-1.2,0-1.7,0c-0.1,0-0.2,0-0.2,0c-0.6,0-1.1,0-1.7,0.1c-0.1,0-0.2,0-0.3,0
		c-0.6,0-1.1,0.1-1.7,0.1c-0.1,0-0.2,0-0.2,0c-0.6,0.1-1.2,0.1-1.7,0.2l0,0c-0.6,0.1-1.2,0.2-1.7,0.3c-0.1,0-0.2,0-0.2,0
		c-0.6,0.1-1.1,0.2-1.6,0.3c-0.1,0-0.2,0-0.3,0.1c-0.5,0.1-1.1,0.3-1.6,0.4c-0.1,0-0.2,0-0.2,0.1c-1.1,0.3-2.3,0.7-3.4,1.1
		c-0.1,0-0.1,0.1-0.2,0.1c-0.5,0.2-1.1,0.4-1.6,0.6c-0.1,0-0.2,0.1-0.3,0.1c-0.5,0.2-1,0.4-1.6,0.7c-0.1,0-0.1,0.1-0.2,0.1
		c-1.1,0.5-2.1,1-3.2,1.6c-0.1,0-0.1,0.1-0.2,0.1c-0.5,0.3-1,0.6-1.5,0.9c-0.1,0.1-0.2,0.1-0.3,0.2c-0.5,0.3-1,0.6-1.4,0.9
		c-0.1,0-0.1,0.1-0.2,0.1c-0.5,0.3-1,0.7-1.5,1.1l0,0l-6.6-5.8l0,0l-0.1,0.1l-5.2-9.2l-4.5-8l0,0l-10.2,11.6l0,0l-10.2,11.6
		l18.3,7.5l-0.1,0.1l1,0.8l-61-16.2c-5.4-1.4-10.5-3.9-15-7.1c-0.5-0.3-0.9-0.7-1.3-1c-2.2-1.7-4.3-3.6-6.1-5.7L784.8,718
		c0.1-0.1,0.2-0.3,0.4-0.4l0,0c0.1-0.1,0.2-0.3,0.3-0.4l0,0c0.1-0.1,0.2-0.3,0.3-0.4l0,0c0.1-0.1,0.1-0.3,0.2-0.4c0,0,0,0,0-0.1
		c0.1-0.1,0.1-0.3,0.2-0.4c0,0,0,0,0-0.1s0.1-0.3,0.1-0.4v-0.1c0-0.1,0-0.3,0.1-0.4v-0.1c0-0.1,0-0.3,0-0.4c0-0.1,0-0.1,0-0.2
		c0-0.1,0-0.2,0-0.4c0-0.1,0-0.1,0-0.2c0-0.1,0-0.2,0-0.3s0-0.1,0-0.2c0-0.1,0-0.2-0.1-0.3c0-0.1,0-0.2-0.1-0.2
		c0-0.1-0.1-0.2-0.1-0.3s-0.1-0.2-0.1-0.2c0-0.1-0.1-0.2-0.1-0.2c0-0.1-0.1-0.2-0.1-0.3s-0.1-0.1-0.1-0.2c-0.1-0.1-0.1-0.2-0.2-0.3
		c0-0.1-0.1-0.1-0.1-0.2c-0.1-0.1-0.2-0.3-0.3-0.4l0,0l-3.3-3.7c-0.5-0.6-1.1-1-1.8-1.3c-1.6-0.8-3.6-0.7-5.2,0.2
		c-0.1,0.1-0.2,0.1-0.3,0.2c-0.2,0.2-0.5,0.3-0.7,0.5l-8.4,7.6l-9.6-14.4l-6.5-9.7c-1.5-2.2-4.4-2.8-6.6-1.4
		c-0.2,0.2-0.5,0.3-0.7,0.5l-19.4,17.4l-19.4,17.4c-2.2,2-2.2,5.5,0.1,7.4l22.2,18.5l-8.4,7.6c-2.3,2.1-2.5,5.6-0.4,7.9l3.3,3.7
		c2,2.2,5.3,2.5,7.6,0.7l73.5,81.8c6,6.7,9.9,15,11.3,23.8l10,64.6c1,6.4,3.9,12.5,8.2,17.3L946,1085.4l-16.8,11l199.1,303.6H1400
		V976.9z"/>
	<g>
		<g>
			<path class="st1" d="M996.8,623L996.8,623l-57.3,34.1l0,0c10.9,18.4,17.1,39.2,18,60.6l0,0c1,24,8,47.5,20.3,68.1l117.9,198.3
				c3.4,5.7,10.8,7.6,16.5,4.2l93-55.3c5.7-3.4,7.6-10.8,4.2-16.5l-117.9-198.3c-12.3-20.7-29.5-38-50.2-50.4l0,0
				C1023,656.8,1007.7,641.4,996.8,623z"/>
			<path class="st2" d="M1003.5,628l-62.8,37.4c-2.3,1.4-5.4,0.6-6.8-1.7l-7.1-11.9c-1.4-2.3-0.6-5.4,1.7-6.8l62.8-37.4
				c2.3-1.4,5.4-0.6,6.8,1.7l7.1,11.9C1006.6,623.6,1005.8,626.6,1003.5,628z"/>
			<path class="st2" d="M990.5,807.3l113.8-67.7l60.2,101.3l-113.8,67.7L990.5,807.3z"/>
			<path class="st1" d="M1049.9,852.5l-19.3-17.5l-0.2,0.1c2.8,4.2,4.7,7,5.5,8.5l7.6,12.7l-5.2,3.1l-16.2-27.3l7.9-4.7l18.9,17
				l0.1-0.1l-5.6-25l7.9-4.7l16.2,27.3l-5.4,3.2l-7.7-12.9c-0.4-0.6-0.8-1.3-1.2-2.1c-0.5-0.8-1.6-3-3.5-6.5l-0.2,0.1l5.7,25.6
				L1049.9,852.5z M1074.5,837.9l-16.2-27.3l5.8-3.4l16.2,27.3L1074.5,837.9z M1089.4,829l-16.2-27.3l5.8-3.4l13.4,22.5l11.1-6.6
				l2.8,4.8L1089.4,829z M1136.8,800.8l-6.6,3.9l-14-7.3l-1.4,3.2l5.8,9.7l-5.8,3.4l-16.2-27.3l5.8-3.4l7.4,12.5l0.4-4.6l1.9-13.7
				l6.4-3.8l-2.3,17.8L1136.8,800.8z"/>
		</g>
		<path class="st1" d="M1049.9,852.5l-19.3-17.5l-0.2,0.1c2.8,4.2,4.7,7,5.5,8.5l7.6,12.7l-5.2,3.1l-16.2-27.3l7.9-4.7l18.9,17
			l0.1-0.1l-5.6-25l7.9-4.7l16.2,27.3l-5.4,3.2l-7.7-12.9c-0.4-0.6-0.8-1.3-1.2-2.1c-0.5-0.8-1.6-3-3.5-6.5l-0.2,0.1l5.7,25.6
			L1049.9,852.5z M1074.5,837.9l-16.2-27.3l5.8-3.4l16.2,27.3L1074.5,837.9z M1089.4,829l-16.2-27.3l5.8-3.4l13.4,22.5l11.1-6.6
			l2.8,4.8L1089.4,829z M1136.8,800.8l-6.6,3.9l-14-7.3l-1.4,3.2l5.8,9.7l-5.8,3.4l-16.2-27.3l5.8-3.4l7.4,12.5l0.4-4.6l1.9-13.7
			l6.4-3.8l-2.3,17.8L1136.8,800.8z"/>
		<path class="st3" d="M1041.4,667.8L1041.4,667.8c-16.1-9.7-29.9-22.7-40.5-38.3l2.6-1.5c2.3-1.4,3.1-4.4,1.7-6.8l-7.1-11.9
			c-1.4-2.3-4.4-3.1-6.8-1.7L960,626.3l198.8,334.3l46.5-27.7c5.7-3.4,7.6-10.8,4.2-16.5l-44.9-75.6l-60.2-101.2l-12.7-21.4
			C1079.3,697.5,1062,680.2,1041.4,667.8z"/>
	</g>
	<g>
		<g>
			<path class="st4" d="M771.3,750.9l-32.7,29.4l-48.7-40.7c-2.3-1.9-2.3-5.4-0.1-7.4l38.8-34.9c2.2-2,5.7-1.6,7.3,0.9L771.3,750.9z
				"/>
			<path class="st5" d="M845,808.1l-81.3-90.4l-57.3,51.6l81.3,90.4c6,6.7,9.9,15,11.3,23.8l10,64.6c1,6.4,3.9,12.5,8.2,17.3
				l278.5,309.7l129.8-116.8L947.1,848.7c-4.4-4.9-10-8.3-16.3-10l-63.2-16.8C858.9,819.6,851,814.8,845,808.1z"/>
			<path class="st5" d="M771.2,726.6l-56.8,51c-2.3,2.1-5.8,1.9-7.9-0.4l-3.3-3.7c-2.1-2.3-1.9-5.8,0.4-7.9l56.8-51
				c2.3-2.1,5.8-1.9,7.9,0.4l3.3,3.7C773.7,721,773.5,724.5,771.2,726.6z"/>
			<path class="st6" d="M914.5,851.5l-91,81.8l1.9,12.3c0.5,3.3,1.9,6.3,4.2,8.8l267.4,297.4l105.2-94.6L934.8,859.8
				c-2.2-2.5-5.1-4.2-8.3-5.1L914.5,851.5z"/>
		</g>
		<path class="st7" d="M947.1,848.7c-4.4-4.9-10-8.3-16.3-10l-63.2-16.8c-8.7-2.3-16.5-7.1-22.5-13.8l-73.5-81.8
			c2-2.1,2.1-5.4,0.1-7.6l-3.3-3.7c-2.1-2.3-5.6-2.5-7.9-0.4l-8.4,7.6l-16.1-24c-1.7-2.5-5.1-2.9-7.3-0.9l-19.4,17.4l451.5,502.1
			l64.9-58.4L947.1,848.7z"/>
	</g>
	<g>
		<g>
			<path class="st8" d="M1333.2,1158L1333.2,1158c35-13.5,52.5-52.8,39-87.9L1185.1,584c-13.5-35-52.8-52.5-87.9-39l0,0
				c-35,13.5-52.5,52.8-39,87.9l187.1,486.1C1258.8,1154,1298.1,1171.5,1333.2,1158z"/>
			<g>
				<path class="st9" d="M1090.1,666c2.3,6,25.1,2.8,50.9-7.1c25.8-9.9,44.9-22.8,42.6-28.8s-25.1-2.8-50.9,7.1
					C1106.9,647.1,1087.8,660,1090.1,666z"/>
				<path class="st9" d="M1121.5,747.4c2.3,6,25.1,2.8,50.9-7.1c25.8-9.9,44.9-22.8,42.6-28.8s-25.1-2.8-50.9,7.1
					C1138.2,728.5,1119.2,741.4,1121.5,747.4z"/>
				<path class="st9" d="M1246.3,792.9c2.3,6-16.8,18.9-42.6,28.8c-25.8,9.9-48.6,13.1-50.9,7.2c-2.3-6,16.8-18.9,42.6-28.8
					S1244,786.9,1246.3,792.9z"/>
				<path class="st9" d="M1184.1,910.2c2.3,6,25.1,2.8,50.9-7.1c25.8-9.9,44.9-22.8,42.6-28.8s-25.1-2.8-50.9,7.1
					C1200.9,891.3,1181.8,904.2,1184.1,910.2z"/>
				<path class="st9" d="M1215.5,991.6c2.3,6,25.1,2.8,50.9-7.1c25.8-9.9,44.9-22.8,42.6-28.8s-25.1-2.8-50.9,7.1
					C1232.2,972.7,1213.1,985.6,1215.5,991.6z"/>
				<path class="st9" d="M1246.8,1073c2.3,6,25.1,2.8,50.9-7.1s44.9-22.8,42.6-28.8s-25.1-2.8-50.9,7.1
					C1263.5,1054.1,1244.5,1067,1246.8,1073z"/>
			</g>
		</g>
		<path class="st3" d="M1097.2,545c35-13.5,74.4,4,87.9,39l187.1,486.1c13.5,35-4,74.4-39,87.9l0,0L1097.2,545L1097.2,545z"/>
	</g>
	<g>
		<g>
			<g>
				<g>
					<path class="st10" d="M941.2,826.6l-10.5,11.8l-21.3-8.7l20.4-23.2L941.2,826.6z"/>
					<path class="st10" d="M1192,1047.6l-10.4,11.8l11.3,20.1l20.5-23.2L1192,1047.6z"/>
				</g>
				<g>
					<path class="st1" d="M927.5,837.2l12.1-13.7l11.1,9.8l-12,13.7L927.5,837.2z"/>
					<path class="st1" d="M1172.1,1052.6l12.1-13.7l11.1,9.8l-12.1,13.7L1172.1,1052.6z"/>
				</g>
				<path class="st10" d="M1183.3,1050.4L1183.3,1050.4c-16.6,18.8-45.3,20.6-64.1,4L943.5,899.6c-18.8-16.6-20.6-45.3-4-64.1l0,0
					c16.6-18.8,45.3-20.6,64.1-4l175.7,154.8C1198,1002.9,1199.9,1031.6,1183.3,1050.4z"/>
			</g>
			<path class="st11" d="M1002.5,904.5c4.8,4.3,5.3,11.6,1,16.4c-4.3,4.8-11.6,5.3-16.4,1c-4.8-4.3-5.3-11.6-1-16.4
				C990.3,900.7,997.6,900.2,1002.5,904.5z"/>
			<path class="st11" d="M989.6,840.5c4.8,4.3,5.3,11.6,1,16.4c-4.3,4.8-11.6,5.3-16.4,1c-4.8-4.3-5.3-11.6-1-16.4
				C977.4,836.7,984.8,836.2,989.6,840.5z"/>
			<path class="st11" d="M1064.6,909.4c4.8,4.3,5.3,11.6,1,16.4c-4.3,4.8-11.6,5.3-16.4,1s-5.3-11.6-1-16.4
				C1052.4,905.6,1059.7,905.1,1064.6,909.4z"/>
			<path class="st11" d="M1088.5,974.8c4.8,4.3,5.3,11.6,1,16.4c-4.3,4.8-11.6,5.3-16.4,1s-5.3-11.6-1-16.4
				C1076.3,971,1083.6,970.5,1088.5,974.8z"/>
			<path class="st11" d="M1155.3,989.7c4.8,4.3,5.3,11.6,1,16.4c-4.3,4.8-11.6,5.3-16.4,1s-5.3-11.6-1-16.4
				C1143.2,985.9,1150.5,985.4,1155.3,989.7z"/>
		</g>
		<path class="st7" d="M946.2,829.3l-6.6-5.8l-0.1,0.1l-9.7-17.2L919.6,818l283.5,249.9l10.2-11.6l-18.3-7.5l0.1-0.1l-6.6-5.8
			c10.5-18.3,7.1-42.1-9.4-56.6l-175.7-154.8C987.1,817,963,816.6,946.2,829.3z"/>
	</g>
	<g>
		<path class="st12" d="M1400,1049.3L1279.8,866l-364,238.7l193.7,295.3H1400V1049.3z"/>
		<path class="st13" d="M1279.8,866l120.2,183.3v-43.9l-128.7-196.2L1279.8,866z"/>
	</g>
	<path class="st13" d="M1400,1049.3L1400,1049.3L1279.8,866L1400,1049.3z"/>
	<path class="st14" d="M382.7,230.3h657.4v168.3H382.7V230.3z"/>
	<text transform="matrix(1 0 0 1 406.0796 285.0732)" class="st1 st15 st16"> </text>
	<g>
		<path class="st0" d="M168.9,968.9l-7.1,18.5l3.5,1.4c2-2.5,5.4-3.6,8.5-2.4c3.8,1.5,5.7,5.8,4.2,9.6s-5.8,5.7-9.6,4.2
			c-3.1-1.2-5-4.3-4.7-7.5l-3.5-1.4l-11,28.3l3.5,1.4c2-2.5,5.4-3.6,8.5-2.4c3.8,1.5,5.7,5.8,4.2,9.6c-1.5,3.8-5.8,5.7-9.6,4.2
			c-3.1-1.2-5-4.3-4.7-7.5l-3.5-1.4l-11,28.3l3.5,1.4c2-2.5,5.4-3.6,8.5-2.4c3.8,1.5,5.7,5.8,4.2,9.6c-1.5,3.8-5.8,5.7-9.6,4.2
			c-3.1-1.2-5-4.3-4.7-7.5l-3.5-1.4l-11,28.3l3.5,1.4c2-2.5,5.4-3.6,8.5-2.4c3.8,1.5,5.7,5.8,4.2,9.6c-1.5,3.8-5.8,5.7-9.6,4.2
			c-3.1-1.2-5-4.3-4.7-7.5l-3.5-1.4l-11,28.3l3.5,1.4c2-2.5,5.4-3.6,8.5-2.4c3.8,1.5,5.7,5.8,4.2,9.6c-1.5,3.8-5.8,5.7-9.6,4.2
			c-3.1-1.2-5-4.3-4.7-7.5l-3.5-1.4l-11,28.3l3.5,1.4c2-2.5,5.4-3.6,8.5-2.4c3.8,1.5,5.7,5.8,4.2,9.6c-1.5,3.8-5.8,5.7-9.6,4.2
			c-3.1-1.2-5-4.3-4.7-7.5l-3.5-1.4l-11,28.3l3.5,1.4c2-2.5,5.4-3.6,8.5-2.4c3.8,1.5,5.7,5.8,4.2,9.6c-1.5,3.8-5.8,5.7-9.6,4.2
			c-3.1-1.2-5-4.3-4.7-7.5l-3.5-1.4l-11,28.3l3.5,1.4c2-2.5,5.4-3.6,8.5-2.4c3.8,1.5,5.7,5.8,4.2,9.6c-1.5,3.8-5.8,5.7-9.6,4.2
			c-3.1-1.2-5-4.3-4.7-7.5l-3.5-1.4l-7.1,18.5l198,76.5l103.2-267L168.9,968.9z"/>
		<g>
			<g>
				<g>
					<path class="st1" d="M164.5,961.6l-7.1,18.5l3.5,1.4c2-2.5,5.4-3.6,8.5-2.4c3.8,1.5,5.7,5.8,4.2,9.6s-5.8,5.7-9.6,4.2
						c-3.1-1.2-5-4.3-4.7-7.5l-3.5-1.4l-11,28.3l3.5,1.4c2-2.5,5.4-3.6,8.5-2.4c3.8,1.5,5.7,5.8,4.2,9.6c-1.5,3.8-5.8,5.7-9.6,4.2
						c-3.1-1.2-5-4.3-4.7-7.5l-3.5-1.4l-11,28.3l3.5,1.4c2-2.5,5.4-3.6,8.5-2.4c3.8,1.5,5.7,5.8,4.2,9.6c-1.5,3.8-5.8,5.7-9.6,4.2
						c-3.1-1.2-5-4.3-4.7-7.5l-3.5-1.4l-11,28.3l3.5,1.4c2-2.5,5.4-3.6,8.5-2.4c3.8,1.5,5.7,5.8,4.2,9.6c-1.5,3.8-5.8,5.7-9.6,4.2
						c-3.1-1.2-5-4.3-4.7-7.5l-3.5-1.4l-11,28.3l3.5,1.4c2-2.5,5.4-3.6,8.5-2.4c3.8,1.5,5.7,5.8,4.2,9.6c-1.5,3.8-5.8,5.7-9.6,4.2
						c-3.1-1.2-5-4.3-4.7-7.5l-3.5-1.4l-11,28.3l3.5,1.4c2-2.5,5.4-3.6,8.5-2.4c3.8,1.5,5.7,5.8,4.2,9.6c-1.5,3.8-5.8,5.7-9.6,4.2
						c-3.1-1.2-5-4.3-4.7-7.5l-3.5-1.4l-11,28.3l3.5,1.4c2-2.5,5.4-3.6,8.5-2.4c3.8,1.5,5.7,5.8,4.2,9.6c-1.5,3.8-5.8,5.7-9.6,4.2
						c-3.1-1.2-5-4.3-4.7-7.5l-3.5-1.4l-11,28.3l3.5,1.4c2-2.5,5.4-3.6,8.5-2.4c3.8,1.5,5.7,5.8,4.2,9.6c-1.5,3.8-5.8,5.7-9.6,4.2
						c-3.1-1.2-5-4.3-4.7-7.5l-3.5-1.4l-7.1,18.5l198,76.5l103.2-267L164.5,961.6z"/>
				</g>
			</g>
			<text transform="matrix(0.9328 0.3605 -0.3605 0.9328 203.4057 1006.0869)" class="st15 st17">SHOPPING LIST</text>
			<g>
				<g>
					<g>
						<path class="st10" d="M191.1,1041.8l-17-6.6l6.6-17l17,6.6L191.1,1041.8z M177,1034l12.9,5l5-12.9l-12.9-5L177,1034z"/>
					</g>
					<g>
						<path class="st10" d="M304.2,1079l-92.6-35.8c-1.6-0.6-2.3-2.3-1.7-3.9l0,0c0.6-1.6,2.3-2.3,3.9-1.7l92.6,35.8
							c1.6,0.6,2.3,2.3,1.7,3.9l0,0C307.5,1078.8,305.8,1079.6,304.2,1079z"/>
					</g>
				</g>
				<g>
					<g>
						<path class="st10" d="M177.2,1078l-17-6.6l6.6-17l17,6.6L177.2,1078z M163,1070.1l12.9,5l5-12.9l-12.9-5L163,1070.1z"/>
					</g>
					<g>
						<path class="st10" d="M290.3,1115.1l-92.6-35.8c-1.6-0.6-2.3-2.3-1.7-3.9l0,0c0.6-1.6,2.3-2.3,3.9-1.7l92.6,35.8
							c1.6,0.6,2.3,2.3,1.7,3.9l0,0C293.6,1115,291.8,1115.7,290.3,1115.1z"/>
					</g>
				</g>
				<g>
					<g>
						<path class="st10" d="M163.2,1114.1l-17-6.6l6.6-17l17,6.6L163.2,1114.1z M149,1106.2l12.9,5l5-12.9l-12.9-5L149,1106.2z"/>
					</g>
					<g>
						<path class="st10" d="M276.3,1151.2l-92.6-35.8c-1.6-0.6-2.3-2.3-1.7-3.9l0,0c0.6-1.6,2.3-2.3,3.9-1.7l92.6,35.8
							c1.6,0.6,2.3,2.3,1.7,3.9l0,0C279.6,1151.1,277.9,1151.8,276.3,1151.2z"/>
					</g>
				</g>
				<g>
					<g>
						<path class="st10" d="M149.3,1150.2l-17-6.6l6.6-17l17,6.6L149.3,1150.2z M135.1,1142.4l12.9,5l5-12.9l-12.9-5L135.1,1142.4z"
							/>
					</g>
					<g>
						<path class="st10" d="M262.4,1187.4l-92.6-35.8c-1.6-0.6-2.3-2.3-1.7-3.9l0,0c0.6-1.6,2.3-2.3,3.9-1.7l92.6,35.8
							c1.6,0.6,2.3,2.3,1.7,3.9l0,0C265.7,1187.2,263.9,1188,262.4,1187.4z"/>
					</g>
				</g>
				<g>
					<g>
						<path class="st10" d="M135.3,1186.3l-17-6.6l6.6-17l17,6.6L135.3,1186.3z M121.1,1178.5l12.9,5l5-12.9l-12.9-5L121.1,1178.5z"
							/>
					</g>
					<g>
						<path class="st10" d="M248.4,1223.5l-92.6-35.8c-1.6-0.6-2.3-2.3-1.7-3.9l0,0c0.6-1.6,2.3-2.3,3.9-1.7l92.6,35.8
							c1.6,0.6,2.3,2.3,1.7,3.9l0,0C251.7,1223.3,250,1224.1,248.4,1223.5z"/>
					</g>
				</g>
				<g>
					<g>
						<path class="st10" d="M121.3,1222.4l-17-6.6l6.6-17l17,6.6L121.3,1222.4z M107.2,1214.6l12.9,5l5-12.9l-12.9-5L107.2,1214.6z"
							/>
					</g>
					<g>
						<path class="st10" d="M234.4,1259.6l-92.6-35.8c-1.6-0.6-2.3-2.3-1.7-3.9l0,0c0.6-1.6,2.3-2.3,3.9-1.7l92.6,35.8
							c1.6,0.6,2.3,2.3,1.7,3.9l0,0C237.7,1259.4,236,1260.2,234.4,1259.6z"/>
					</g>
				</g>
			</g>
			<g>
				<path d="M184,1033.9c-0.1-0.1-0.3-0.1-0.4-0.2c-0.5-0.4-0.8-1-0.7-1.6l1-14.7c0-0.6,0.6-1.1,1.2-1c0.6,0,1.1,0.6,1,1.2l-1,14.1
					l28.5-11.3c0.6-0.2,1.2,0.1,1.4,0.6c0.2,0.6-0.1,1.2-0.6,1.4l-29,11.5C184.9,1034.1,184.4,1034.1,184,1033.9z"/>
			</g>
			<g>
				<path d="M170.1,1069.7c-0.1-0.1-0.3-0.1-0.4-0.2c-0.5-0.4-0.8-1-0.7-1.6l1-14.7c0-0.6,0.6-1.1,1.2-1c0.6,0,1.1,0.6,1,1.2
					l-1,14.1l28.5-11.3c0.6-0.2,1.2,0.1,1.4,0.6c0.2,0.6-0.1,1.2-0.6,1.4l-29,11.5C171,1069.9,170.6,1069.9,170.1,1069.7z"/>
			</g>
			<g>
				<path d="M142.7,1140.8c-0.1-0.1-0.3-0.1-0.4-0.2c-0.5-0.4-0.8-1-0.7-1.6l1-14.7c0-0.6,0.6-1.1,1.2-1c0.6,0,1.1,0.6,1,1.2
					l-1,14.1l28.5-11.3c0.6-0.2,1.2,0.1,1.4,0.6c0.2,0.6-0.1,1.2-0.6,1.4l-29,11.5C143.5,1141,143.1,1141,142.7,1140.8z"/>
			</g>
			<g>
				<path d="M115,1212.4c-0.1-0.1-0.3-0.1-0.4-0.2c-0.5-0.4-0.8-1-0.7-1.6l1-14.7c0-0.6,0.6-1.1,1.2-1c0.6,0,1.1,0.6,1,1.2l-1,14.1
					l28.5-11.3c0.6-0.2,1.2,0.1,1.4,0.6c0.2,0.6-0.1,1.2-0.6,1.4l-29,11.5C115.9,1212.6,115.4,1212.6,115,1212.4z"/>
			</g>
		</g>
	</g>
	<g>
		<path class="st0" d="M602.3,1248.3l-141.9-93.7c-4.4-2.9-10.3-1.7-13.2,2.7l-55.3,83.8c-2.9,4.4-1.7,10.3,2.7,13.2l141.9,93.7
			c4.4,2.9,10.3,1.7,13.2-2.7l55.3-83.8C607.9,1257.1,606.7,1251.2,602.3,1248.3z"/>
		<g>
			<path class="st18" d="M533.2,1337.1l-141.9-93.7c-4.4-2.9-5.6-8.8-2.7-13.2l55.3-83.8c2.9-4.4,8.8-5.6,13.2-2.7l141.9,93.7
				c4.4,2.9,5.6,8.8,2.7,13.2l-55.3,83.8C543.5,1338.8,537.6,1340,533.2,1337.1z"/>
			<g>
				<path class="st19" d="M420.8,1181.5l18.3-27.7l157.7,104.1l-18.3,27.7L420.8,1181.5z"/>
				<path class="st1" d="M420.8,1181.6l9.1-13.9l157.7,104.1l-9.1,13.9L420.8,1181.6z"/>
			</g>
			<g>
				<path class="st1" d="M412.9,1223.5l9.4-14.3l30.7,20.3l-9.4,14.3L412.9,1223.5z"/>
				<g>
					<path class="st1" d="M481.5,1242.4l72.2,47.7c0.8,0.5,1.9,0.3,2.5-0.5l0,0c0.5-0.8,0.3-1.9-0.5-2.5l-72.2-47.7
						c-0.8-0.5-1.9-0.3-2.5,0.5l0,0C480.4,1240.7,480.6,1241.8,481.5,1242.4z"/>
					<path class="st1" d="M475.8,1250.9l72.2,47.7c0.8,0.5,1.9,0.3,2.5-0.5l0,0c0.5-0.8,0.3-1.9-0.5-2.5l-72.2-47.7
						c-0.8-0.5-1.9-0.3-2.5,0.5l0,0C474.8,1249.2,475,1250.4,475.8,1250.9z"/>
					<path class="st1" d="M470.2,1259.4l72.2,47.7c0.8,0.5,1.9,0.3,2.5-0.5l0,0c0.5-0.8,0.3-1.9-0.5-2.5l-72.2-47.7
						c-0.8-0.5-1.9-0.3-2.5,0.5l0,0C469.1,1257.8,469.4,1258.9,470.2,1259.4z"/>
					<path class="st1" d="M464.5,1268l72.2,47.7c0.8,0.5,1.9,0.3,2.5-0.5l0,0c0.5-0.8,0.3-1.9-0.5-2.5l-72.2-47.7
						c-0.8-0.5-1.9-0.3-2.5,0.5l0,0C463.5,1266.3,463.7,1267.4,464.5,1268z"/>
				</g>
			</g>
		</g>
	</g>
	<g>
		<path class="st0" d="M775.7,1209c-0.3-0.5-0.6-0.9-1-1.4c-2.2-3-4.8-5.8-7.6-8.3c-0.5-0.4-0.9-0.8-1.4-1.2
			c-1.5-1.3-3.2-2.5-4.8-3.6c-1.4-0.9-2.8-1.7-4.2-2.5c-2.5-1.4-5.2-2.6-8-3.5l0,0l0,0c-25.6-9-53.4,2-66.3,24.9
			c-2.5,4.4-0.3,10.1,4.5,11.8l30.2,10.6l-20.3,45.9c-4.3,9.7,0.6,21,10.6,24.5l0,0l0,0c0.1,0,0.2,0.1,0.3,0.1
			c0.3,0.1,0.7,0.2,1,0.3c0.8,0.2,1.5,0.4,2.3,0.5c0.4,0.1,0.8,0.1,1.1,0.1c1.4,0.1,2.8,0,4.1-0.2c0.8-0.1,1.5-0.3,2.2-0.5
			c0.3-0.1,0.6-0.2,0.9-0.3c0.6-0.2,1.1-0.4,1.7-0.7c0.6-0.3,1.1-0.5,1.6-0.9c1.4-0.9,2.8-1.9,3.9-3.1c2-2.1,3.5-4.8,4.4-7.8
			l9.1-34.1l3.8-14.4l30.2,10.6l0,0l0,0c0.6,0.2,1.2,0.3,1.7,0.4c0.3,0,0.7,0.1,1,0.1c0.4,0,0.9,0,1.3-0.1c0.4-0.1,0.9-0.2,1.3-0.3
			c1.8-0.6,3.4-1.8,4.4-3.4c0.2-0.3,0.3-0.5,0.4-0.8c0.3-0.7,0.6-1.4,0.7-2.2C787.2,1235,783.7,1220.6,775.7,1209z"/>
		<g>
			<g>
				<path class="st20" d="M704.1,1300.3L704.1,1300.3c-10-3.5-14.9-14.8-10.6-24.5l26.7-60.3l24.4,8.6l-17,63.7
					C725,1298.1,714.1,1303.8,704.1,1300.3z"/>
				<path class="st21" d="M745.6,1182.7c-25.6-9-53.4,2-66.3,24.9c-2.5,4.4-0.3,10.1,4.5,11.8l87,30.7c4.8,1.7,10-1.3,10.8-6.4
					C786,1217.7,771.2,1191.7,745.6,1182.7z"/>
			</g>
			<path class="st3" d="M781.7,1243.6c4.3-25.9-10.4-51.9-36.1-60.9l0,0l-41.5,117.6l0,0c10,3.5,20.9-2.2,23.6-12.5l12.9-48.5
				l30.2,10.6C775.6,1251.7,780.8,1248.6,781.7,1243.6z"/>
		</g>
	</g>
	<g>
		<path class="st0" d="M981.8,1269.5c0-0.2,0-0.4-0.1-0.6c-0.1-0.4-0.1-0.8-0.3-1.2c-0.1-0.4-0.2-0.8-0.4-1.2
			c-2.4-6.4-9.6-9.7-16-7.3c-0.5,0.2-1,0.4-1.5,0.7c-15.6-21.5-49-29.4-81-17.4s-52.1,39.9-49.8,66.3c-0.5,0.1-1.1,0.3-1.6,0.5
			c-6.4,2.4-9.7,9.6-7.3,16c0.4,1,0.9,1.9,1.5,2.8c1.4,2,3.4,3.5,5.6,4.4c0.4,0.1,0.7,0.3,1.1,0.4c1.1,0.3,2.3,0.5,3.6,0.5l0,0
			c0.4,0,0.8,0,1.2-0.1c0.2,0,0.4,0,0.6-0.1c0.2,0,0.5-0.1,0.7-0.1c0.4-0.1,0.7-0.2,1.1-0.3c0.2-0.1,0.4-0.1,0.6-0.2
			c0.3-0.1,0.5-0.2,0.7-0.3h0.1c0.2-0.1,0.5-0.2,0.7-0.3c0.2,0.3,0.5,0.7,0.7,1l0,0c1.8,2.3,3.7,4.4,5.9,6.4l0,0
			c2.1,2,4.5,3.7,7,5.3c0,0,0,0,0.1,0c0.3,0.2,0.7,0.4,1,0.6c0,0,0.1,0,0.1,0.1c0.3,0.2,0.7,0.4,1,0.6l0,0c1.8,1.1,3.7,2,5.6,2.9
			c0.1,0,0.1,0.1,0.2,0.1c0.3,0.2,0.7,0.3,1,0.4c0.1,0,0.2,0.1,0.2,0.1c0.3,0.1,0.7,0.3,1,0.4c0.1,0,0.2,0.1,0.2,0.1
			c0.4,0.1,0.7,0.3,1.1,0.4h0.1c1.6,0.6,3.1,1.1,4.8,1.6c0.1,0,0.2,0.1,0.3,0.1c0.3,0.1,0.6,0.2,1,0.3c0.1,0,0.3,0.1,0.4,0.1
			c0.3,0.1,0.6,0.2,0.9,0.2c0.2,0,0.3,0.1,0.5,0.1c0.3,0.1,0.6,0.1,0.9,0.2c0.1,0,0.3,0.1,0.5,0.1c0.3,0.1,0.7,0.1,1,0.2
			c0.1,0,0.2,0,0.3,0.1c1.1,0.2,2.3,0.4,3.4,0.6c0.2,0,0.4,0.1,0.5,0.1c0.3,0,0.6,0.1,0.9,0.1c0.2,0,0.4,0.1,0.6,0.1
			c0.3,0,0.6,0.1,0.9,0.1c0.2,0,0.4,0,0.7,0.1c0.3,0,0.6,0.1,0.8,0.1s0.5,0,0.7,0.1c0.3,0,0.5,0,0.8,0.1c0.2,0,0.5,0,0.7,0
			c0.3,0,0.5,0,0.8,0c0.4,0,0.7,0,1.1,0c0.4,0,0.7,0,1.1,0c0.3,0,0.6,0,0.8,0c0.3,0,0.5,0,0.8,0s0.5,0,0.8,0s0.5,0,0.8,0
			s0.6,0,0.8,0c0.3,0,0.5,0,0.8,0s0.6,0,0.9,0c0.2,0,0.5,0,0.7,0c0.3,0,0.6,0,0.9-0.1c0.2,0,0.4,0,0.7,0c0.4,0,0.8-0.1,1.2-0.1
			c0.2,0,0.3,0,0.5,0c0.5,0,1-0.1,1.5-0.2c0.2,0,0.4,0,0.6-0.1c0.3,0,0.7-0.1,1-0.1c0.2,0,0.4-0.1,0.7-0.1s0.6-0.1,1-0.1
			c0.2,0,0.5-0.1,0.7-0.1c0.3-0.1,0.6-0.1,1-0.2c0.2,0,0.5-0.1,0.7-0.1c0.3-0.1,0.7-0.1,1-0.2c0.2,0,0.4-0.1,0.6-0.1
			c0.4-0.1,0.8-0.2,1.2-0.2c0.2,0,0.3-0.1,0.5-0.1c0.5-0.1,1.1-0.2,1.6-0.4c0.1,0,0.3-0.1,0.4-0.1c0.4-0.1,0.8-0.2,1.2-0.3
			c0.2-0.1,0.4-0.1,0.6-0.2c0.3-0.1,0.7-0.2,1-0.3c0.2-0.1,0.4-0.1,0.6-0.2c0.3-0.1,0.7-0.2,1-0.3c0.2-0.1,0.4-0.1,0.7-0.2
			s0.7-0.2,1-0.3c0.2-0.1,0.4-0.1,0.6-0.2c0.4-0.1,0.7-0.2,1.1-0.4c0.2-0.1,0.4-0.1,0.5-0.2c0.5-0.2,1.1-0.4,1.6-0.6
			s1.1-0.4,1.6-0.6c0.2-0.1,0.3-0.1,0.5-0.2c0.4-0.1,0.7-0.3,1.1-0.4c0.2-0.1,0.4-0.2,0.6-0.3c0.3-0.1,0.7-0.3,1-0.4
			c0.2-0.1,0.4-0.2,0.6-0.3c0.3-0.1,0.6-0.3,1-0.4c0.2-0.1,0.4-0.2,0.6-0.3c0.3-0.2,0.7-0.3,1-0.5c0.2-0.1,0.4-0.2,0.6-0.3
			c0.4-0.2,0.8-0.4,1.1-0.6c0.1-0.1,0.3-0.1,0.4-0.2c0.5-0.3,1-0.5,1.5-0.8c0.1-0.1,0.3-0.2,0.4-0.2c0.3-0.2,0.7-0.4,1-0.6
			c0.2-0.1,0.4-0.2,0.6-0.3c0.3-0.2,0.6-0.3,0.9-0.5c0.2-0.1,0.4-0.2,0.6-0.4c0.3-0.2,0.6-0.3,0.8-0.5c0.2-0.1,0.4-0.2,0.6-0.4
			c0.3-0.2,0.5-0.3,0.8-0.5c0.2-0.1,0.4-0.2,0.6-0.4c0.3-0.2,0.6-0.4,0.8-0.6c0.2-0.1,0.3-0.2,0.5-0.3c0.4-0.3,0.8-0.6,1.2-0.9
			c0.1-0.1,0.3-0.2,0.4-0.3c0.3-0.2,0.6-0.5,1-0.7c0.2-0.1,0.4-0.3,0.5-0.4c0.2-0.2,0.5-0.4,0.7-0.6c0.2-0.1,0.4-0.3,0.6-0.5
			c0.2-0.2,0.4-0.4,0.7-0.5c0.2-0.2,0.4-0.3,0.6-0.5c0.2-0.2,0.4-0.4,0.6-0.5c0.2-0.2,0.4-0.3,0.6-0.5c0.2-0.2,0.4-0.4,0.6-0.5
			c0.2-0.2,0.4-0.3,0.6-0.5c0.2-0.2,0.4-0.4,0.6-0.6c0.3-0.3,0.6-0.5,0.9-0.8c0.2-0.2,0.5-0.5,0.7-0.7s0.4-0.4,0.6-0.6
			c0.2-0.2,0.3-0.3,0.5-0.5s0.4-0.4,0.6-0.6c0.2-0.2,0.3-0.3,0.5-0.5s0.4-0.4,0.6-0.6c0.2-0.2,0.3-0.3,0.5-0.5s0.4-0.4,0.6-0.6
			c0.1-0.2,0.3-0.3,0.4-0.5c0.2-0.2,0.4-0.4,0.6-0.7c0.1-0.1,0.2-0.3,0.4-0.4c0.8-0.9,1.5-1.8,2.2-2.7c0.1-0.1,0.1-0.2,0.2-0.2
			c0.2-0.3,0.4-0.5,0.6-0.8c0.1-0.1,0.2-0.2,0.3-0.4c0.2-0.3,0.4-0.5,0.6-0.8c0.1-0.1,0.2-0.3,0.3-0.4c0.2-0.3,0.4-0.5,0.6-0.8
			c0.1-0.1,0.2-0.2,0.2-0.4c0.2-0.3,0.4-0.6,0.6-0.8c0.1-0.1,0.1-0.2,0.2-0.3c0.9-1.4,1.8-2.9,2.6-4.3c0,0,0-0.1,0.1-0.1
			c0.2-0.3,0.4-0.7,0.5-1c0-0.1,0.1-0.2,0.1-0.2c0.2-0.3,0.3-0.7,0.5-1c0-0.1,0.1-0.2,0.1-0.2c0.2-0.3,0.3-0.7,0.5-1
			c0-0.1,0.1-0.1,0.1-0.2c0.9-1.9,1.7-3.9,2.4-5.9l0,0c0.1-0.4,0.3-0.8,0.4-1.1v-0.1c0.1-0.4,0.2-0.8,0.3-1.1v-0.1
			c0.7-2.4,1.2-4.9,1.6-7.4l0,0c0.1-0.4,0.1-0.8,0.2-1.2l0,0c0.3-2.9,0.4-5.8,0.3-8.7l0,0c0-0.4-0.1-0.8-0.1-1.2l0,0l0,0
			c0.2-0.1,0.5-0.1,0.7-0.2h0.1c0.3-0.1,0.5-0.2,0.8-0.3c1-0.4,1.9-0.9,2.8-1.5c0.7-0.5,1.3-1,1.8-1.6c0.3-0.3,0.5-0.6,0.8-0.9
			c0.4-0.5,0.7-1,1-1.5c0.1-0.2,0.2-0.3,0.3-0.5c0.2-0.4,0.3-0.7,0.5-1.1c0.1-0.4,0.3-0.7,0.4-1.1c0.1-0.4,0.2-0.8,0.3-1.2
			c0-0.2,0.1-0.4,0.1-0.6c0.1-0.6,0.1-1.2,0.1-1.8C981.9,1270.4,981.9,1270,981.8,1269.5z"/>
		<g>
			<g>
				<path class="st22" d="M964.3,1264.2c11,29.5-10.1,64.6-47.1,78.4s-75.9,1.1-86.9-28.4l0,0c-11-29.5,10.1-64.6,47.1-78.4
					C914.3,1222,953.3,1234.7,964.3,1264.2L964.3,1264.2z"/>
				<g>
					<path class="st23" d="M975.8,1259.9c2.4,6.4-0.9,13.6-7.3,16c-6.4,2.4-13.6-0.9-16-7.3s0.9-13.6,7.3-16
						C966.3,1250.2,973.4,1253.4,975.8,1259.9z"/>
					<path class="st23" d="M841.8,1309.9c2.4,6.4-0.9,13.6-7.3,16c-6.4,2.4-13.6-0.9-16-7.3s0.9-13.6,7.3-16
						C832.3,1300.2,839.4,1303.4,841.8,1309.9z"/>
				</g>
			</g>
			<path class="st3" d="M917.1,1342.6c32-12,52.1-39.9,49.8-66.3c0.5-0.1,1.1-0.3,1.6-0.5c6.4-2.4,9.7-9.6,7.3-16l-157.3,58.7
				c2.4,6.4,9.6,9.7,16,7.3c0.5-0.2,1-0.4,1.5-0.7C851.6,1346.7,885.1,1354.6,917.1,1342.6z"/>
		</g>
	</g>
	<g>
		<path class="st0" d="M865.3,1098.3c0-0.1,0-0.3,0-0.4c0-0.3,0-0.6-0.1-0.9c-0.1-0.7-0.3-1.5-0.7-2.2
			c-7.1-15.2-20.7-26.1-36.4-30.1c-0.4-0.1-0.8-0.2-1.2-0.3c-0.8-0.2-1.6-0.3-2.3-0.5c-0.4-0.1-0.8-0.1-1.2-0.2
			c-0.8-0.1-1.6-0.2-2.4-0.3c-0.4,0-0.8-0.1-1.2-0.1c-1.2-0.1-2.4-0.2-3.6-0.2c-0.8,0-1.6,0-2.4,0c-1.2,0-2.4,0.1-3.7,0.2
			c-0.4,0-0.8,0.1-1.2,0.1c-1.2,0.1-2.5,0.3-3.7,0.5c-1.6,0.3-3.3,0.6-4.9,1.1l0,0l0,0c-26.2,7-43,31.8-40.7,57.9
			c0.4,5.1,5.4,8.5,10.3,7.2l30.9-8.2l9.1,49.4c1.9,10.4,12.3,17,22.5,14.3l0,0l0,0l0,0l0,0l0,0c0.6-0.2,1.1-0.3,1.7-0.5
			c0.2-0.1,0.5-0.2,0.7-0.3c0.4-0.2,0.8-0.4,1.2-0.6c0.8-0.4,1.6-0.9,2.4-1.5c0.5-0.4,1-0.8,1.4-1.2c3-2.7,5-6.3,5.7-10.2
			c0.1-0.3,0.1-0.6,0.1-0.9c0.4-2.7,0.1-5.6-0.9-8.4l-11.8-33.5l-4.9-13.9l30.9-8.2c1.5-0.4,2.7-1.1,3.7-2.1
			c0.2-0.2,0.3-0.3,0.4-0.5c0.1-0.1,0.2-0.2,0.3-0.3c0.1-0.2,0.2-0.3,0.3-0.5C864.8,1101.4,865.3,1099.9,865.3,1098.3z"/>
		<g>
			<g>
				<path class="st20" d="M826.5,1182L826.5,1182c-10.2,2.7-20.6-3.8-22.5-14.3l-12-64.8l25-6.7l21.9,62.2
					C842.5,1168.4,836.7,1179.3,826.5,1182z"/>
				<path class="st21" d="M794.3,1061.5c-26.2,7-43,31.8-40.7,57.9c0.4,5.1,5.4,8.5,10.3,7.2l89.2-23.8c4.9-1.3,7.5-6.8,5.4-11.4
					C847.4,1067.6,820.6,1054.5,794.3,1061.5z"/>
			</g>
			<path class="st3" d="M858.5,1091.5c-11.1-23.8-37.9-37-64.2-30l0,0l32.2,120.5l0,0c10.2-2.7,16-13.6,12.4-23.6l-16.7-47.3
				l30.9-8.2C858.1,1101.5,860.6,1096.1,858.5,1091.5z"/>
		</g>
	</g>
	<g>
		<path class="st0" d="M703.8,1130.7C703.8,1130.7,703.8,1130.6,703.8,1130.7c0.1-0.2,0.2-0.4,0.2-0.5v-0.1c0-0.2,0.1-0.3,0.1-0.5
			v-0.1c0-0.1,0-0.3,0-0.4s0-0.1,0-0.2c0-0.2,0-0.3,0-0.5v-0.1c0-0.2,0-0.4,0-0.6c0-0.1,0-0.1,0-0.2c0-0.2,0-0.3-0.1-0.5
			c0-0.1,0-0.1,0-0.2c0-0.2-0.1-0.4-0.1-0.6v-0.1c0-0.2-0.1-0.4-0.2-0.6c0-0.1,0-0.1-0.1-0.2c-0.1-0.2-0.1-0.3-0.2-0.5
			c0-0.1,0-0.1-0.1-0.2c-0.1-0.2-0.2-0.5-0.3-0.7c0-0.1-0.1-0.1-0.1-0.2c-0.1-0.2-0.2-0.4-0.2-0.5s-0.1-0.2-0.1-0.2
			c-0.1-0.2-0.2-0.4-0.3-0.6c0,0,0-0.1-0.1-0.1c-0.1-0.2-0.2-0.5-0.4-0.7c0-0.1-0.1-0.2-0.1-0.3c-0.1-0.2-0.2-0.4-0.3-0.5
			s-0.1-0.2-0.2-0.3c-0.1-0.3-0.3-0.5-0.5-0.8c0-0.1-0.1-0.1-0.1-0.2c-0.1-0.2-0.2-0.4-0.4-0.6c-0.1-0.1-0.1-0.2-0.2-0.3
			c-0.1-0.2-0.3-0.4-0.4-0.6c-0.1-0.1-0.1-0.2-0.2-0.3c-0.2-0.3-0.4-0.5-0.6-0.8c-0.1-0.1-0.2-0.2-0.2-0.3c-0.1-0.2-0.3-0.4-0.4-0.5
			c-0.1-0.1-0.2-0.2-0.3-0.4c-0.2-0.2-0.3-0.4-0.5-0.6c-0.1-0.1-0.2-0.3-0.3-0.4c-0.2-0.2-0.3-0.4-0.5-0.6c-0.1-0.1-0.2-0.3-0.3-0.4
			c-0.1-0.2-0.3-0.3-0.4-0.5c-0.1-0.1-0.2-0.3-0.3-0.4c-0.2-0.3-0.5-0.5-0.7-0.8c-0.1-0.1-0.2-0.3-0.3-0.4c-0.1-0.2-0.3-0.3-0.4-0.5
			c-0.1-0.2-0.3-0.3-0.4-0.5c-0.2-0.2-0.3-0.3-0.5-0.5s-0.4-0.4-0.6-0.6c-0.2-0.2-0.4-0.4-0.6-0.6c-0.2-0.2-0.3-0.3-0.5-0.5
			c-0.1-0.2-0.3-0.3-0.4-0.5c-0.2-0.2-0.3-0.3-0.5-0.5s-0.3-0.3-0.5-0.5c-0.3-0.3-0.6-0.6-0.8-0.9c-0.1-0.1-0.3-0.3-0.4-0.4
			c-0.2-0.2-0.4-0.4-0.6-0.6c-0.1-0.1-0.3-0.3-0.4-0.4c-0.7-0.7-1.3-1.4-2-2c-0.1-0.1-0.2-0.2-0.4-0.4c-0.2-0.2-0.4-0.4-0.7-0.6
			c-0.1-0.1-0.2-0.2-0.3-0.3c-0.4-0.4-0.9-0.8-1.3-1.3c-0.1-0.1-0.2-0.2-0.3-0.2c-0.2-0.2-0.5-0.5-0.7-0.7c-0.1-0.1-0.2-0.2-0.3-0.3
			c-0.3-0.2-0.5-0.5-0.8-0.7l0,0c-0.6-0.5-1.2-1.1-1.8-1.6c-0.1-0.1-0.2-0.1-0.2-0.2c-0.3-0.3-0.6-0.5-0.8-0.8
			c-0.1-0.1-0.2-0.1-0.2-0.2c-0.9-0.8-1.8-1.6-2.8-2.5c-0.1-0.1-0.1-0.1-0.2-0.2c-0.3-0.3-0.6-0.6-0.9-0.8l0,0
			c-1-0.9-2.1-1.8-3.1-2.7l-0.1-0.1c-1-0.9-2.1-1.8-3.2-2.7c0,0-0.1,0-0.1-0.1c-0.4-0.3-0.7-0.6-1.1-0.9l0,0l0,0l0,0
			c-0.6-0.5-1.1-0.9-1.7-1.4c0,0-0.1,0-0.1-0.1c-0.5-0.5-1.1-0.9-1.7-1.4l-0.1-0.1l0,0l0,0c-0.5-0.5-1.1-0.9-1.7-1.4l-0.1-0.1
			c-1-0.8-2-1.6-3-2.5c0,0,0,0-0.1,0c-1-0.8-2-1.6-3.1-2.5l0,0c-5.2-4.1-10.6-8.3-16.2-12.5l0,0c-1.1-0.8-2.2-1.7-3.3-2.5
			c0,0,0,0-0.1,0c-1.1-0.8-2.2-1.6-3.3-2.5l0,0c-5.6-4.1-11.3-8.3-16.9-12.3c0,0-0.1,0-0.1-0.1c-1.1-0.8-2.2-1.6-3.3-2.3
			c0,0-0.1,0-0.1-0.1c-1.1-0.8-2.2-1.6-3.3-2.3l0,0l0,0c-1.4-0.9-2.7-1.9-4.1-2.8l-0.1-0.1c-9.6-6.7-18.9-12.9-27.4-18.5l0,0
			c-1.5-1-3-2-4.5-2.9c0,0-0.1,0-0.1-0.1c-1.4-0.9-2.9-1.9-4.3-2.7l-0.1-0.1c-0.7-0.4-1.4-0.9-2-1.3l0,0c-0.7-0.4-1.3-0.9-2-1.3
			c0,0-0.1,0-0.1-0.1c-0.6-0.4-1.2-0.8-1.8-1.1c-0.1,0-0.1-0.1-0.2-0.1c-0.6-0.4-1.3-0.8-1.9-1.2l0,0c-0.6-0.4-1.1-0.7-1.7-1.1
			c-0.1-0.1-0.2-0.1-0.3-0.2c-1.1-0.7-2.2-1.4-3.3-2c-0.1-0.1-0.2-0.1-0.3-0.2c-1-0.6-2-1.2-3-1.8c-0.1-0.1-0.2-0.1-0.3-0.2
			c-0.4-0.2-0.8-0.5-1.2-0.7c-0.1,0-0.1-0.1-0.2-0.1c-0.4-0.3-0.9-0.5-1.3-0.8c-0.1-0.1-0.2-0.1-0.3-0.2c-0.4-0.2-0.7-0.4-1-0.6
			c-0.1,0-0.2-0.1-0.2-0.1c-0.4-0.2-0.8-0.4-1.1-0.7c-0.1,0-0.1-0.1-0.2-0.1c-0.3-0.2-0.6-0.3-0.9-0.5c-0.1,0-0.2-0.1-0.3-0.1
			c-0.3-0.2-0.7-0.4-1-0.5c0,0-0.1,0-0.1-0.1c-0.3-0.2-0.5-0.3-0.8-0.4c-0.1,0-0.2-0.1-0.2-0.1c-0.3-0.2-0.6-0.3-0.8-0.4
			c-0.4-0.2-0.8-0.4-1.1-0.6c-0.1-0.1-0.2-0.1-0.4-0.2c-0.3-0.1-0.5-0.2-0.8-0.4c-0.1-0.1-0.3-0.1-0.4-0.2c-0.3-0.1-0.5-0.2-0.8-0.3
			c-0.1-0.1-0.2-0.1-0.4-0.2c-0.3-0.1-0.6-0.3-0.9-0.4c-0.1,0-0.1,0-0.2-0.1c-0.4-0.1-0.7-0.3-1.1-0.4c-0.1,0-0.2-0.1-0.3-0.1
			c-0.3-0.1-0.5-0.2-0.8-0.3c-0.1,0-0.3-0.1-0.4-0.1c-0.2-0.1-0.5-0.2-0.7-0.2c-0.1,0-0.3-0.1-0.4-0.1c-0.3-0.1-0.5-0.2-0.8-0.2
			c-0.1,0-0.2-0.1-0.3-0.1c-0.4-0.1-0.7-0.2-1-0.3c-0.1,0-0.2,0-0.3-0.1c-0.3-0.1-0.5-0.1-0.8-0.2c-0.1,0-0.3-0.1-0.4-0.1
			c-0.2-0.1-0.4-0.1-0.7-0.1c-0.1,0-0.3-0.1-0.4-0.1c-0.2,0-0.5-0.1-0.7-0.1c-0.1,0-0.2,0-0.3-0.1c-0.3-0.1-0.7-0.1-1-0.2
			c-0.1,0-0.2,0-0.2,0c-0.3,0-0.5-0.1-0.8-0.1c-0.1,0-0.3,0-0.4,0c-0.2,0-0.4,0-0.6-0.1c-0.1,0-0.3,0-0.4,0c-0.2,0-0.4,0-0.6,0
			c-0.1,0-0.2,0-0.4,0c-0.3,0-0.6,0-0.9,0c-0.1,0-0.2,0-0.3,0c-0.3,0-0.5,0-0.8,0c-0.1,0-0.3,0-0.4,0c-0.2,0-0.4,0-0.6,0
			c-0.1,0-0.3,0-0.4,0c-0.2,0-0.4,0-0.6,0c-0.1,0-0.3,0-0.4,0c-0.2,0-0.4,0-0.6,0c-0.1,0-0.2,0-0.4,0c-0.3,0-0.5,0.1-0.8,0.1
			c-0.1,0-0.3,0-0.4,0c-0.2,0-0.3,0-0.5,0.1c-0.1,0-0.3,0-0.4,0.1c-0.2,0-0.3,0.1-0.5,0.1c-0.1,0-0.3,0-0.4,0.1
			c-0.2,0-0.3,0.1-0.5,0.1c-0.1,0-0.3,0-0.4,0.1c-0.3,0.1-0.5,0.1-0.8,0.2c-0.1,0-0.3,0.1-0.4,0.1c-0.2,0-0.3,0.1-0.5,0.1
			c-0.1,0-0.3,0.1-0.4,0.1s-0.3,0.1-0.4,0.1s-0.3,0.1-0.4,0.1s-0.3,0.1-0.4,0.1s-0.3,0.1-0.4,0.1c-0.2,0.1-0.3,0.1-0.5,0.2
			c-0.2,0.1-0.5,0.2-0.7,0.3c-0.1,0-0.3,0.1-0.4,0.1c-0.2,0.1-0.3,0.1-0.5,0.2c-0.1,0-0.2,0.1-0.4,0.2c-0.2,0.1-0.3,0.1-0.5,0.2
			c-0.1,0.1-0.2,0.1-0.3,0.2c-0.2,0.1-0.3,0.1-0.5,0.2c-0.1,0-0.2,0.1-0.3,0.1c-0.3,0.2-0.6,0.3-0.9,0.5c-0.1,0-0.2,0.1-0.3,0.1
			c-0.2,0.1-0.3,0.2-0.5,0.3c-0.1,0.1-0.2,0.1-0.3,0.2c-0.2,0.1-0.3,0.2-0.5,0.3c-0.1,0.1-0.2,0.1-0.3,0.2c-0.2,0.1-0.3,0.2-0.5,0.3
			c-0.1,0-0.1,0.1-0.2,0.1c-0.4,0.2-0.7,0.5-1.1,0.7c0,0-0.1,0-0.1,0.1c-0.2,0.1-0.3,0.2-0.5,0.4c-0.1,0.1-0.2,0.1-0.2,0.2
			c-0.2,0.1-0.3,0.2-0.5,0.4c-0.1,0.1-0.2,0.1-0.2,0.2c-0.2,0.1-0.3,0.2-0.5,0.4c-0.1,0-0.1,0.1-0.2,0.1c-0.6,0.4-1.1,0.9-1.7,1.4
			c-0.1,0-0.1,0.1-0.2,0.1c-0.2,0.1-0.3,0.3-0.5,0.4c-0.1,0.1-0.1,0.1-0.2,0.2c-0.2,0.2-0.3,0.3-0.5,0.5l-0.1,0.1
			c-0.6,0.5-1.1,1.1-1.6,1.6l-0.1,0.1c-0.2,0.2-0.3,0.3-0.5,0.5c0,0.1-0.1,0.1-0.1,0.2c-0.2,0.2-0.3,0.3-0.5,0.5l-0.1,0.1
			c-0.5,0.6-1.1,1.2-1.6,1.9l0,0l-44.9-48.4l0,0l0,0l-14.6,14.8l0,0l0,0l11.8,10.6l9.6,8.7l-23.4-13.3l-9.4,18.5l24.5,11.1
			l-28.1-6.1l-3.4,20.4l65.5,8c-4.9,18,0,35.3,21.4,46.2c5.8,3,18.4,8.3,34.6,14.6c0.2,0.1,0.3,0.1,0.5,0.2c0.6,0.2,1.2,0.5,1.8,0.7
			c0.1,0,0.2,0.1,0.3,0.1c57.2,21.9,155.6,54.1,165.7,38c0.1-0.1,0.2-0.3,0.2-0.4C703.7,1131,703.7,1130.8,703.8,1130.7z"/>
		<g>
			<g>
				<g>
					<g>
						<path class="st24" d="M429.7,965.8l14.5-14.8l49.2,53.1l-10,10.1L429.7,965.8z"/>
						<path class="st24" d="M414.6,995.3l-3.4,20.5l71.7,8.7l2.4-14L414.6,995.3z"/>
					</g>
					<path class="st25" d="M418.3,990.2l9.4-18.4l62.8,35.7l-6.4,12.7L418.3,990.2z"/>
				</g>
				<g>
					<path class="st26" d="M498,1069.9c-26.4-13.5-27.7-36.8-16.3-58.9c11.3-22.2,31-34.8,57.3-21.3
						c26.4,13.5,173.4,111.2,162.1,133.4C689.8,1145.2,524.4,1083.4,498,1069.9z"/>
					<path class="st27" d="M617.2,1081c0,0-10.4,9.6-17.9,24.2c-0.4,0.8-0.8,1.7-1.2,2.5c3.2,1,6.3,2,9.5,3c0.2-0.3,0.3-0.7,0.5-1
						C615.5,1095,617.2,1081,617.2,1081z"/>
					<path class="st27" d="M549.3,1058c0,0-10.4,9.6-17.9,24.2c-0.3,0.5-0.5,1.1-0.8,1.6c3,1.2,6.1,2.3,9.3,3.5
						c0.1-0.2,0.2-0.4,0.3-0.6C547.6,1072,549.3,1058,549.3,1058z"/>
					<path class="st27" d="M588.6,1056.5c0,0,10.2-9.3,17.6-23.6c-2.8-1.9-5.5-3.8-8.2-5.7c-0.1,0.2-0.2,0.4-0.3,0.7
						C590.2,1042.4,588.6,1056.5,588.6,1056.5z"/>
					<path class="st27" d="M537.4,1022.9c0,0,10.3-9.4,17.7-23.9c-3.1-1.9-6-3.7-8.5-5.1c-0.1,0.1-0.1,0.2-0.2,0.3
						C539,1008.8,537.4,1022.9,537.4,1022.9z"/>
					<path class="st27" d="M664.4,1076.9c-2.3-1.9-4.7-3.9-7.1-5.9c-4.8,11.8-6,21.8-6,21.8S657.9,1086.7,664.4,1076.9z"/>
				</g>
			</g>
			<path class="st3" d="M701.1,1123.1c4.1-8-12.6-26-36.7-46.2l0,0c-0.6-0.5-1.1-0.9-1.7-1.4c0,0-0.1,0-0.1-0.1
				c-0.5-0.5-1.1-0.9-1.7-1.4l-0.1-0.1c-0.5-0.5-1.1-0.9-1.7-1.4l-0.1-0.1c-16.1-13.1-34.9-27-52.8-39.6l0,0
				c-1.4-0.9-2.7-1.9-4.1-2.8c0,0-0.1,0-0.1-0.1c-28-19.4-53.4-35.4-63-40.3c-21.3-10.9-38.3-4.7-50,9.8L444.2,951l-14.6,14.8
				l21.4,19.3l-23.4-13.3l-5,9.8l278.1,142.1C700.9,1123.5,701,1123.3,701.1,1123.1z"/>
		</g>
	</g>
	<g>
		<path class="st0" d="M697.7,1036.6c0.1-0.1,0.2-0.2,0.3-0.3l0.1-0.1c0.1-0.1,0.2-0.3,0.3-0.4c0,0,0-0.1,0.1-0.1
			c0.1-0.1,0.1-0.3,0.2-0.4l0.1-0.1c0.1-0.1,0.1-0.3,0.2-0.4v-0.1c0.1-0.2,0.1-0.4,0.2-0.6c0-0.1,0-0.1,0-0.2s0.1-0.3,0.1-0.5
			c0-0.1,0-0.1,0-0.2c0-0.2,0.1-0.4,0.1-0.6v-0.1c0-0.2,0.1-0.4,0.1-0.6c0-0.1,0-0.1,0-0.2c0-0.2,0-0.4,0-0.5s0-0.1,0-0.2
			c0-0.2,0-0.5,0-0.7c0-0.1,0-0.1,0-0.2c0-0.2,0-0.4,0-0.6c0-0.1,0-0.2,0-0.3c0-0.2,0-0.4,0-0.7v-0.1c0-0.3,0-0.5-0.1-0.8
			c0-0.1,0-0.2,0-0.3c0-0.2,0-0.4-0.1-0.6c0-0.1,0-0.2,0-0.3c0-0.3-0.1-0.6-0.1-0.9c0-0.1,0-0.2,0-0.3c0-0.2-0.1-0.5-0.1-0.7
			c0-0.1,0-0.2-0.1-0.4c0-0.2-0.1-0.4-0.1-0.7c0-0.1,0-0.2-0.1-0.3c-0.1-0.3-0.1-0.6-0.2-0.9c0-0.1-0.1-0.3-0.1-0.4
			c-0.1-0.2-0.1-0.4-0.2-0.7c0-0.1-0.1-0.3-0.1-0.4c-0.1-0.3-0.1-0.5-0.2-0.8c0-0.2-0.1-0.3-0.1-0.5c-0.1-0.3-0.1-0.5-0.2-0.8
			c0-0.2-0.1-0.3-0.1-0.5c-0.1-0.2-0.1-0.4-0.2-0.7c0-0.2-0.1-0.3-0.1-0.5c-0.1-0.3-0.2-0.7-0.3-1c-0.1-0.2-0.1-0.3-0.2-0.5
			c-0.1-0.2-0.1-0.4-0.2-0.7c-0.1-0.2-0.1-0.4-0.2-0.6c-0.1-0.2-0.1-0.4-0.2-0.7c-0.1-0.3-0.2-0.5-0.3-0.8s-0.2-0.6-0.3-0.8
			s-0.2-0.4-0.2-0.6c-0.1-0.2-0.1-0.4-0.2-0.6c-0.1-0.2-0.2-0.4-0.2-0.7c-0.1-0.2-0.2-0.4-0.2-0.6c-0.1-0.4-0.3-0.7-0.4-1.1
			c-0.1-0.2-0.1-0.4-0.2-0.6c-0.1-0.2-0.2-0.5-0.3-0.7s-0.1-0.4-0.2-0.6c-0.3-0.9-0.7-1.8-1.1-2.7c-0.1-0.2-0.1-0.3-0.2-0.5
			c-0.1-0.3-0.2-0.6-0.4-0.8c-0.1-0.1-0.1-0.3-0.2-0.4c-0.2-0.6-0.5-1.1-0.7-1.7c0-0.1-0.1-0.2-0.1-0.3c-0.1-0.3-0.3-0.6-0.4-0.9
			c-0.1-0.1-0.1-0.3-0.2-0.4c-0.1-0.3-0.3-0.6-0.4-0.9c0,0,0,0,0-0.1c-0.3-0.7-0.6-1.4-1-2.1c0-0.1-0.1-0.2-0.1-0.3
			c-0.2-0.3-0.3-0.7-0.5-1c0-0.1-0.1-0.2-0.2-0.3c-0.5-1.1-1-2.2-1.6-3.3c0-0.1-0.1-0.2-0.1-0.3c-0.2-0.4-0.4-0.8-0.5-1.1l0,0
			c-0.6-1.2-1.2-2.5-1.8-3.7c0-0.1-0.1-0.1-0.1-0.2c-0.6-1.2-1.2-2.5-1.9-3.7c0,0,0-0.1-0.1-0.1c-0.2-0.4-0.4-0.8-0.7-1.3l0,0l0,0
			l0,0c-0.3-0.7-0.7-1.3-1-2l0,0c0,0,0,0,0-0.1c-0.3-0.7-0.7-1.3-1-2V976c-0.3-0.6-0.7-1.3-1-1.9l0,0c0,0,0,0,0-0.1
			c-0.4-0.7-0.7-1.4-1.1-2.1l0,0l0,0c-0.3-0.5-0.5-0.9-0.8-1.4c0,0,0,0,0-0.1c-0.6-1.1-1.2-2.3-1.9-3.5l0,0
			c-3.2-5.8-6.6-11.8-10.1-17.8l0,0c-0.7-1.2-1.4-2.4-2.1-3.6v-0.1c-0.7-1.2-1.4-2.4-2.1-3.6l0,0c-3.6-6-7.2-12-10.9-17.9
			c0,0,0-0.1-0.1-0.1c-0.7-1.2-1.4-2.3-2.1-3.4c0,0,0-0.1-0.1-0.1c-0.7-1.2-1.4-2.3-2.2-3.4l0,0l0,0l0,0c-0.9-1.4-1.8-2.8-2.6-4.2
			c0,0,0-0.1-0.1-0.1l0,0c-3.1-4.9-6.2-9.7-9.3-14.4l0,0c-1.9-2.9-3.8-5.8-5.7-8.6l0,0c-0.3-0.4-0.5-0.8-0.8-1.2l0,0
			c-0.8-1.2-1.5-2.3-2.3-3.4c0,0,0-0.1-0.1-0.1c-1-1.5-2-2.9-2.9-4.4c0-0.1-0.1-0.1-0.1-0.2c-0.7-1-1.3-2-2-2.9
			c-0.1-0.1-0.1-0.2-0.2-0.3c-0.2-0.3-0.4-0.6-0.6-0.9c-0.1-0.1-0.1-0.2-0.2-0.3c-0.4-0.6-0.8-1.2-1.2-1.8l-0.1-0.1
			c-0.2-0.3-0.4-0.5-0.5-0.8c-0.1-0.1-0.2-0.3-0.3-0.4c-0.2-0.3-0.4-0.5-0.5-0.8c-0.1-0.1-0.2-0.2-0.3-0.4c-0.3-0.4-0.6-0.9-0.9-1.3
			c-0.1-0.1-0.2-0.3-0.3-0.4c-0.1-0.2-0.3-0.4-0.4-0.6c-0.1-0.2-0.2-0.3-0.4-0.5c-0.1-0.2-0.3-0.4-0.4-0.6c-0.2-0.3-0.4-0.6-0.7-0.9
			c-0.1-0.2-0.3-0.4-0.4-0.5c-0.1-0.2-0.2-0.4-0.4-0.5c-0.1-0.2-0.2-0.3-0.3-0.5l0,0l0,0c0,0,0,0,0-0.1c-0.1-0.2-0.3-0.4-0.4-0.6
			c-0.2-0.2-0.3-0.4-0.5-0.7c-0.2-0.2-0.3-0.5-0.5-0.7c-0.1-0.1-0.2-0.3-0.3-0.4c-0.1-0.2-0.3-0.4-0.4-0.6c-0.1-0.1-0.2-0.3-0.3-0.4
			c-0.2-0.3-0.4-0.5-0.6-0.8c-0.1-0.1-0.2-0.2-0.3-0.4c-0.2-0.2-0.3-0.4-0.5-0.6c-0.1-0.1-0.2-0.2-0.3-0.4s-0.3-0.4-0.4-0.6
			c-0.1-0.1-0.1-0.2-0.2-0.3c-0.2-0.3-0.4-0.5-0.6-0.8c-0.1-0.1-0.1-0.2-0.2-0.3c-0.1-0.2-0.3-0.4-0.4-0.6c-0.1-0.1-0.1-0.2-0.2-0.3
			c-0.2-0.2-0.3-0.4-0.5-0.7l-0.1-0.1c-0.2-0.3-0.4-0.5-0.6-0.7c-0.1-0.1-0.1-0.1-0.2-0.2c-0.1-0.2-0.3-0.4-0.4-0.5
			c-0.1-0.1-0.1-0.1-0.2-0.2c-0.2-0.2-0.4-0.5-0.5-0.7l-0.1-0.1c-0.1-0.2-0.3-0.4-0.4-0.5c-0.1-0.1-0.1-0.1-0.1-0.2
			c-0.1-0.2-0.3-0.3-0.4-0.5l-0.1-0.1c-0.2-0.2-0.3-0.4-0.5-0.6l-0.1-0.1c-0.1-0.1-0.2-0.3-0.3-0.4c0-0.1-0.1-0.1-0.1-0.1
			c-0.1-0.2-0.3-0.3-0.4-0.5c-0.3-0.3-0.5-0.6-0.8-1c-0.1-0.1-0.2-0.2-0.3-0.3c-0.2-0.2-0.4-0.4-0.6-0.6c-0.1-0.1-0.2-0.2-0.3-0.3
			c-0.2-0.2-0.4-0.4-0.6-0.6c-0.1-0.1-0.2-0.2-0.3-0.3c-0.2-0.2-0.5-0.5-0.7-0.7l-0.1-0.1c-0.3-0.3-0.6-0.5-0.8-0.8
			c-0.1-0.1-0.2-0.2-0.3-0.2c-0.2-0.2-0.4-0.4-0.6-0.6c-0.1-0.1-0.2-0.2-0.3-0.3c-0.2-0.2-0.4-0.3-0.6-0.5c-0.1-0.1-0.2-0.2-0.3-0.3
			c-0.2-0.2-0.4-0.4-0.6-0.5c-0.1-0.1-0.1-0.1-0.2-0.2c-0.3-0.2-0.6-0.5-0.9-0.7c-0.1-0.1-0.2-0.1-0.2-0.2c-0.2-0.2-0.4-0.3-0.6-0.5
			c-0.1-0.1-0.2-0.2-0.3-0.2c-0.2-0.1-0.4-0.3-0.6-0.4c-0.1-0.1-0.2-0.2-0.3-0.2c-0.2-0.1-0.4-0.3-0.6-0.4c-0.1-0.1-0.2-0.1-0.3-0.2
			c-0.3-0.2-0.6-0.4-0.9-0.5c-0.1,0-0.1-0.1-0.2-0.1c-0.2-0.1-0.4-0.3-0.7-0.4c-0.1-0.1-0.2-0.1-0.3-0.2c-0.2-0.1-0.4-0.2-0.6-0.3
			c-0.1-0.1-0.2-0.1-0.4-0.2c-0.2-0.1-0.4-0.2-0.6-0.3c-0.1-0.1-0.2-0.1-0.3-0.2c-0.3-0.1-0.5-0.3-0.8-0.4c-0.1,0-0.2-0.1-0.3-0.1
			c-0.2-0.1-0.5-0.2-0.7-0.3c-0.1-0.1-0.2-0.1-0.4-0.1c-0.2-0.1-0.4-0.1-0.5-0.2c-0.1-0.1-0.3-0.1-0.4-0.1c-0.2-0.1-0.3-0.1-0.5-0.2
			c-0.1,0-0.3-0.1-0.4-0.1c-0.2-0.1-0.4-0.1-0.6-0.2c-0.1,0-0.2-0.1-0.4-0.1c-0.3-0.1-0.5-0.2-0.8-0.2c-0.1,0-0.3-0.1-0.4-0.1
			c-0.2,0-0.3-0.1-0.5-0.1c-0.1,0-0.3-0.1-0.4-0.1c-0.2,0-0.3-0.1-0.5-0.1c-0.1,0-0.3-0.1-0.4-0.1c-0.2,0-0.3-0.1-0.5-0.1
			c-0.1,0-0.3-0.1-0.4-0.1c-0.3-0.1-0.6-0.1-0.8-0.1c-0.1,0-0.3,0-0.4-0.1c-0.2,0-0.3,0-0.5-0.1c-0.2,0-0.3,0-0.5-0.1
			c-0.1,0-0.3,0-0.4-0.1c-0.2,0-0.3,0-0.5,0c-0.1,0-0.3,0-0.4,0c-0.2,0-0.3,0-0.5,0s-0.3,0-0.5,0c-0.3,0-0.5,0-0.8,0
			c-0.1,0-0.3,0-0.4,0c-0.2,0-0.3,0-0.5,0c-0.1,0-0.3,0-0.4,0c-0.2,0-0.3,0-0.5,0c-0.1,0-0.2,0-0.4,0s-0.3,0-0.5,0
			c-0.1,0-0.2,0-0.3,0c-0.4,0-0.7,0-1.1,0.1c-0.1,0-0.2,0-0.3,0c-0.2,0-0.4,0-0.5,0.1c-0.1,0-0.2,0-0.3,0c-0.2,0-0.4,0-0.5,0.1
			c-0.1,0-0.2,0-0.3,0c-0.2,0-0.4,0.1-0.6,0.1c-0.1,0-0.1,0-0.2,0c-0.4,0.1-0.9,0.2-1.3,0.2h-0.1c-0.2,0-0.4,0.1-0.6,0.1
			c-0.1,0-0.2,0-0.3,0.1c-0.2,0-0.4,0.1-0.6,0.1c-0.1,0-0.2,0-0.3,0.1c-0.2,0.1-0.4,0.1-0.6,0.2c-0.1,0-0.1,0-0.2,0.1
			c-0.7,0.2-1.4,0.4-2.1,0.6c-0.1,0-0.1,0-0.2,0.1c-0.2,0.1-0.4,0.1-0.6,0.2c-0.1,0-0.1,0.1-0.2,0.1c-0.2,0.1-0.4,0.2-0.6,0.2
			c-0.1,0-0.1,0-0.2,0.1c-0.7,0.3-1.4,0.6-2.1,0.9h-0.1c-0.2,0.1-0.4,0.2-0.7,0.3c-0.1,0-0.1,0.1-0.2,0.1c-0.2,0.1-0.4,0.2-0.6,0.3
			c-0.1,0-0.1,0-0.2,0.1c-0.7,0.4-1.5,0.7-2.2,1.1L539.2,812l-12.1-33.1l-19.1,8l0,0l0,0l12.3,26.1l-16.4-21.3l0,0l0,0l-8.4,7.1l0,0
			l-7.4,6.2l18.2,19.8l-23.6-16.5l-11.1,17.5l57.3,32.7c-11.5,14.7-13.7,32.6,1.8,50.9c4.2,5,13.8,14.8,26.3,26.9
			c0.1,0.1,0.2,0.2,0.3,0.3c0.5,0.5,1,0.9,1.5,1.4c0.1,0.1,0.1,0.1,0.2,0.2c14.1,13.5,31.5,29.5,49.4,44.8l0,0l0,0
			c38.7,33.1,79,62.6,89,54.2c0.1-0.1,0.3-0.2,0.4-0.4C697.7,1036.7,697.7,1036.6,697.7,1036.6z"/>
		<g>
			<g>
				<g>
					<g>
						<path class="st24" d="M506.8,775.7l19.1-8l24.8,68l-13.1,5.4L506.8,775.7z"/>
						<path class="st24" d="M481.5,797.1l-11.1,17.5l62.7,35.8l7.6-11.9L481.5,797.1z"/>
					</g>
					<path class="st25" d="M486.8,793.8l15.9-13.4l44,57.4l-10.8,9.1L486.8,793.8z"/>
				</g>
				<g>
					<path class="st26" d="M529.4,898.2c-19.1-22.6-11.2-44.6,7.8-60.7s42-20,61.1,2.6S715,1009.8,696,1025.9
						C677,1042,548.5,920.8,529.4,898.2z"/>
					<path class="st27" d="M635,954.5c0,0-13.3,4.8-25.9,15.3c-0.7,0.6-1.4,1.2-2.1,1.8c2.5,2.2,5.1,4.3,7.6,6.4
						c0.3-0.2,0.6-0.5,0.9-0.7C628,966.9,635,954.5,635,954.5z"/>
					<path class="st27" d="M581.3,907c0,0-13.3,4.8-25.9,15.3c-0.5,0.4-0.9,0.8-1.3,1.2c2.3,2.2,4.7,4.5,7.2,6.9
						c0.2-0.2,0.4-0.3,0.6-0.5C574.3,919.3,581.3,907,581.3,907z"/>
					<path class="st27" d="M618.1,920.9c0,0,13-4.7,25.4-14.9c-1.8-2.8-3.6-5.7-5.3-8.4c-0.2,0.2-0.4,0.3-0.6,0.5
						C625.1,908.5,618.1,920.9,618.1,920.9z"/>
					<path class="st27" d="M583.9,870.1c0,0,13.2-4.7,25.6-15.1c-2.1-3-4.1-5.7-5.8-8c-0.1,0.1-0.2,0.2-0.3,0.2
						C590.9,857.7,583.9,870.1,583.9,870.1z"/>
					<path class="st27" d="M680.1,969c-1.4-2.7-2.8-5.4-4.3-8.2c-9,9-13.9,17.8-13.9,17.8S670.3,975.6,680.1,969z"/>
				</g>
			</g>
			<path class="st3" d="M696,1025.9c6.9-5.8-1.5-28.8-15.9-56.8l0,0c-0.3-0.7-0.7-1.3-1-2V967c-0.3-0.6-0.7-1.3-1-1.9
				c0-0.1-0.1-0.1-0.1-0.2c-0.3-0.6-0.7-1.3-1-1.9l-0.1-0.1c-9.7-18.3-21.7-38.4-33.4-57l0,0c-0.9-1.4-1.8-2.8-2.6-4.2
				c0,0,0-0.1-0.1-0.1c-18.3-28.8-35.5-53.3-42.4-61.5c-15.4-18.3-33.4-19.2-49.8-10.4l-22.6-62l-19.1,8l12.3,26.1l-16.4-21.3
				l-8.4,7.1l201.3,238.7C695.7,1026.2,695.8,1026,696,1025.9z"/>
		</g>
	</g>
	<g>
		<path class="st0" d="M377.2,839.9c-0.2-0.5-0.3-1-0.5-1.6c-0.1-0.2-0.1-0.3-0.2-0.5c-0.1-0.4-0.2-0.7-0.4-1.1
			c-0.1-0.2-0.1-0.4-0.2-0.6c-0.1-0.3-0.2-0.7-0.4-1c-0.1-0.2-0.1-0.4-0.2-0.6c-0.1-0.3-0.3-0.7-0.4-1c-0.1-0.2-0.1-0.3-0.2-0.5
			c-0.2-0.5-0.4-1-0.6-1.4c-0.1-0.1-0.1-0.3-0.2-0.4c-0.2-0.4-0.3-0.7-0.5-1.1c-0.1-0.2-0.2-0.4-0.3-0.6c-0.1-0.3-0.3-0.6-0.4-0.8
			s-0.2-0.4-0.3-0.6c-0.1-0.3-0.3-0.5-0.4-0.8c-0.1-0.2-0.2-0.4-0.3-0.6c-0.1-0.3-0.3-0.5-0.4-0.8c-0.1-0.2-0.2-0.4-0.3-0.6
			c-0.2-0.4-0.5-0.8-0.7-1.2c-0.1-0.2-0.3-0.4-0.4-0.7c-0.1-0.2-0.3-0.4-0.4-0.6c-0.2-0.2-0.3-0.5-0.5-0.7c-0.1-0.2-0.3-0.4-0.4-0.6
			c-0.2-0.2-0.3-0.5-0.5-0.7c-0.1-0.2-0.2-0.3-0.4-0.5c-0.2-0.3-0.4-0.5-0.5-0.8c-0.1-0.1-0.2-0.2-0.3-0.3c-0.7-0.9-1.4-1.9-2.2-2.7
			c-0.1-0.1-0.2-0.2-0.2-0.3c-0.2-0.3-0.5-0.5-0.7-0.8c-0.1-0.1-0.2-0.2-0.3-0.3c-0.2-0.3-0.5-0.6-0.7-0.8c-0.1-0.1-0.1-0.1-0.2-0.2
			c-1.2-1.3-2.4-2.5-3.7-3.7l-0.1-0.1c-0.3-0.3-0.6-0.6-0.9-0.9l-0.1-0.1c-1.7-1.5-3.4-2.9-5.3-4.2l0,0c-0.4-0.3-0.7-0.5-1.1-0.8
			c0.1-0.1,0.2-0.1,0.4-0.2c0,0,0.1,0,0.1-0.1c0.2-0.1,0.4-0.2,0.5-0.3c0,0,0.1,0,0.1-0.1c0.2-0.1,0.3-0.2,0.5-0.3
			c0,0,0.1,0,0.1-0.1c0.1-0.1,0.3-0.2,0.4-0.3c0,0,0.1,0,0.1-0.1c0.1-0.1,0.2-0.2,0.3-0.2c0,0,0.1,0,0.1-0.1
			c0.1-0.1,0.2-0.1,0.3-0.2c0,0,0,0,0.1,0c0.1-0.1,0.1-0.1,0.2-0.1l0,0c0.1,0,0.1-0.1,0.1-0.1l0,0l0,0l0,0l0,0l0,0
			c0,0-3.3-3.2-8.9-6.6c-0.7-0.5-1.5-0.9-2.3-1.4c-6.1-3.5-14.3-6.9-23.5-7.5c-0.6,0-1.3-0.1-1.9-0.1c-0.2,0-0.4,0-0.6,0
			c-0.4,0-0.8,0-1.3,0c-0.2,0-0.5,0-0.7,0c-0.4,0-0.8,0-1.1,0.1c-0.3,0-0.5,0-0.8,0.1c-0.4,0-0.7,0.1-1.1,0.1
			c-0.3,0-0.5,0.1-0.8,0.1s-0.7,0.1-1,0.1s-0.5,0.1-0.8,0.1c-0.3,0.1-0.7,0.1-1,0.2c-0.3,0-0.5,0.1-0.8,0.1c-0.3,0.1-0.7,0.1-1,0.2
			c-0.2,0.1-0.5,0.1-0.7,0.2c-0.3,0.1-0.7,0.2-1,0.2c-0.2,0.1-0.5,0.1-0.7,0.2c-0.3,0.1-0.7,0.2-1,0.3c-0.2,0.1-0.4,0.1-0.6,0.2
			c-0.4,0.1-0.7,0.2-1.1,0.3c-0.2,0.1-0.3,0.1-0.5,0.2c-0.5,0.2-1,0.3-1.5,0.5c0,0,0,0-0.1,0c-0.5,0.2-1,0.4-1.5,0.5
			c-0.1,0-0.3,0.1-0.4,0.1c-0.4,0.1-0.7,0.3-1.1,0.4c-0.2,0.1-0.3,0.1-0.5,0.2c-0.3,0.1-0.6,0.2-0.9,0.4c-0.2,0.1-0.3,0.1-0.5,0.2
			c-0.3,0.1-0.6,0.2-0.8,0.4c-0.2,0.1-0.3,0.2-0.5,0.2c-0.3,0.1-0.5,0.2-0.8,0.4c-0.1,0-0.1,0.1-0.2,0.1l-3.1-15.1l-4.6,1.4
			l-4.6,1.4l5.7,14.3c-7.4,1-17.4,3.6-26,10c-15.7,11.8-20.3,32.1-20.3,32.1s1.5,0.1,4,0c-5.4,13.6-6.4,28.9-1.9,43.8
			c10.9,36.1,50,56.2,87.3,45l0,0l0,0C366.6,914.3,388,876,377.2,839.9z"/>
		<g>
			<g>
				<g>
					<path class="st28" d="M368.2,835.6c10.9,36.1-10.6,74.4-47.9,85.7l0,0c-37.3,11.2-76.4-8.9-87.3-44.9l0,0
						c-10.9-36.1,10.6-74.4,47.9-85.7l0,0C318.3,779.4,357.3,799.5,368.2,835.6L368.2,835.6z"/>
					<g>
						<path class="st25" d="M281.1,791.4c0,0,15,7.2,19,20.5s-4.5,27.6-4.5,27.6s-15-7.2-19-20.5S281.1,791.4,281.1,791.4z"/>
						<g>
							<path class="st25" d="M287.7,789.9c0,0-4.7,20.3-20.3,32.1c-15.7,11.8-36.5,10.7-36.5,10.7s4.7-20.3,20.3-32.1
								C266.9,788.8,287.7,789.9,287.7,789.9z"/>
							<path class="st25" d="M274.8,793.8c0,0,15.1,14.3,34.7,15.5s36.3-11.2,36.3-11.2s-15.1-14.3-34.7-15.5
								S274.8,793.8,274.8,793.8z"/>
						</g>
					</g>
					<path class="st25" d="M285.3,795.6l-5.4,1.7l-8.4-21.1l9.2-2.7L285.3,795.6z"/>
				</g>
				<path class="st7" d="M342.5,800.2c2.1-1.3,3.3-2.2,3.3-2.2s-15.1-14.3-34.7-15.5c-10.7-0.6-20.5,2.8-27.2,6l-3.1-15.1l-4.6,1.4
					l44.1,146.5c37.4-11.2,58.8-49.6,48-85.7C363.7,820.8,354.4,808.6,342.5,800.2z"/>
			</g>
			<path class="st29" d="M267.9,853.3c0,7.6-6.2,13.8-13.8,13.8c-7.6,0-13.8-6.2-13.8-13.8s6.2-13.8,13.8-13.8
				C261.7,839.6,267.9,845.7,267.9,853.3z"/>
		</g>
	</g>
	<g>
		<path class="st0" d="M483.9,671.5c-0.2-1.3-0.5-2.6-0.8-3.9c-0.1-0.2-0.1-0.4-0.2-0.7c-0.2-0.7-0.3-1.3-0.5-2
			c-0.1-0.2-0.1-0.5-0.2-0.7c-1-3.5-2.3-6.8-3.8-9.9c-0.8-1.6-1.6-3.1-2.5-4.6c-0.4-0.7-0.9-1.5-1.4-2.2c-1-1.4-2-2.8-3-4.1
			s-2.1-2.5-3.3-3.7l0,0c-0.6-0.6-1.2-1.2-1.9-1.8c-1.5-1.4-3-2.6-4.6-3.8c-1-0.7-2-1.4-3-2c-0.9-0.5-1.7-1-2.6-1.5
			c-2.1-1.1-4.3-2-6.5-2.8c-0.3-0.1-0.6-0.2-0.9-0.3c-0.8-0.3-1.7-0.5-2.5-0.7c-0.3-0.1-0.7-0.2-1-0.2c-1.3-0.3-2.7-0.5-4-0.7
			c-0.6-0.1-1.1-0.1-1.7-0.2c-0.7-0.1-1.4-0.1-2.1-0.1c-0.4,0-0.9,0-1.4,0c-2.9,0-5.8,0.2-8.8,0.7c-0.5,0.1-1,0.2-1.5,0.3
			c-0.2,0-0.3,0.1-0.5,0.1c-0.3,0.1-0.6,0.1-1,0.2c-0.2,0-0.4,0.1-0.6,0.1c-0.3,0.1-0.6,0.1-0.8,0.2c-0.2,0.1-0.4,0.1-0.6,0.2
			c-0.3,0.1-0.5,0.2-0.8,0.2c-0.2,0.1-0.4,0.1-0.6,0.2c-0.2,0.1-0.5,0.2-0.7,0.2c-0.2,0.1-0.4,0.1-0.7,0.2c-0.2,0.1-0.4,0.2-0.7,0.3
			c-0.5,0.2-1,0.4-1.5,0.6c-0.1,0.1-0.3,0.1-0.4,0.2c-0.3,0.1-0.6,0.2-0.9,0.4c-0.1,0.1-0.3,0.1-0.4,0.2c-0.3,0.1-0.6,0.3-0.9,0.4
			c-0.1,0.1-0.3,0.1-0.4,0.2c-0.3,0.1-0.6,0.3-0.9,0.4c-0.1,0.1-0.2,0.1-0.4,0.2c-0.3,0.2-0.6,0.3-0.9,0.5c-0.1,0-0.2,0.1-0.2,0.1
			c-1.5,0.8-2.9,1.8-4.3,2.7l0,0l-0.4-12.8l-0.3-10.9l-7.7,1.4l0,0l-7.7,1.4l7,21.2c-5.6-1.2-11.4-1.3-17.4-0.3
			c-27,4.8-46.5,32.2-41.1,62.6c5.4,30.5,34.8,68.4,61.8,63.6c8.4-1.5,15.5-6.9,21.3-14.5c3.5,2.3,7.1,4,10.8,5.2
			c1.3,0.4,2.7,0.8,4,1c0.7,0.1,1.3,0.2,2,0.3c2.7,0.3,5.5,0.3,8.2-0.2c2.1-0.4,4.1-1,6.1-1.9c0.8-0.3,1.6-0.7,2.3-1.1
			c5.3-2.9,10-7.4,13.9-13c0.3-0.4,0.6-0.8,0.8-1.2C482.4,718.1,487.4,691.5,483.9,671.5z"/>
		<g>
			<g>
				<g>
					<path class="st21" d="M400.4,639.6l-6.2,1.1l-10.3-31l15.5-2.8L400.4,639.6z"/>
					<path class="st25" d="M373.5,630.6c8.4-1.5,16.5-0.6,23.8,2.1c6.4-5.2,14-8.9,22.4-10.4c27-4.8,51.4,14.7,56.8,45.2
						s-9.1,76.2-36.1,81c-8.4,1.5-16.9-1.1-25-6.3c-5.7,7.6-12.9,13-21.3,14.5c-27,4.8-56.4-33.1-61.8-63.6
						C327,662.8,346.5,635.5,373.5,630.6z"/>
				</g>
				<path class="st3" d="M419.8,622.4c-7.2,1.3-13.8,4.2-19.6,8.2l-0.7-23.7l-7.7,1.4l23.9,134c8,5.2,16.6,7.8,25,6.3
					c27-4.8,41.5-50.5,36.1-81C471.2,637.1,446.8,617.6,419.8,622.4z"/>
			</g>
			<path class="st29" d="M376.3,667.6c1.3,7.2-3.5,14.2-10.8,15.5c-7.2,1.3-14.2-3.5-15.5-10.8s3.5-14.2,10.8-15.4
				C368.1,655.5,375,660.4,376.3,667.6z"/>
		</g>
	</g>
	<g>
		<path class="st0" d="M669.5,665.9c-0.1-0.8-0.2-1.6-0.3-2.4c-0.1-0.8-0.2-1.6-0.4-2.3c-0.3-1.4-0.6-2.9-1-4.3
			c-0.1-0.5-0.3-0.9-0.4-1.3c-0.8-2.4-1.7-4.7-2.8-6.8c-0.2-0.4-0.4-0.7-0.6-1.1c-2.1-3.8-4.7-7.2-7.8-10.3
			c-1.2-1.1-2.4-2.2-3.7-3.2c-0.4-0.3-0.9-0.7-1.4-1c-1.3-0.9-2.7-1.8-4.1-2.5c-0.4-0.2-0.8-0.4-1.3-0.7c-0.4-0.2-0.7-0.4-1.1-0.5
			c-0.4-0.2-0.9-0.4-1.3-0.6c-0.1-0.1-0.3-0.1-0.4-0.2c-0.3-0.1-0.6-0.2-0.9-0.4c-0.2-0.1-0.4-0.1-0.5-0.2c-0.3-0.1-0.5-0.2-0.8-0.3
			c-0.2-0.1-0.4-0.1-0.6-0.2c-0.2-0.1-0.5-0.2-0.7-0.2c-0.2-0.1-0.4-0.1-0.6-0.2c-0.2-0.1-0.5-0.1-0.7-0.2c-0.2-0.1-0.4-0.1-0.6-0.2
			c-0.2-0.1-0.4-0.1-0.7-0.2c-0.5-0.1-1-0.3-1.5-0.4c-0.1,0-0.3-0.1-0.4-0.1c-0.3-0.1-0.6-0.1-0.9-0.2c-0.1,0-0.3-0.1-0.4-0.1
			c-0.3-0.1-0.6-0.1-0.9-0.2c-0.1,0-0.3,0-0.4-0.1c-0.3,0-0.6-0.1-0.9-0.1c-0.1,0-0.2,0-0.4,0c-0.3,0-0.7-0.1-1-0.1
			c-0.1,0-0.2,0-0.2,0c-1.6-0.2-3.2-0.2-4.9-0.2l0,0l9.7-14.7l2.7-4l-6.7-3.2l0,0l-6.7-3.2l-6.1,20.3c-3.7-4-8.1-7.3-13.4-9.7
			c-23.6-11-53.6-0.5-66,26.1s-10.3,71.9,13.2,83c7.3,3.4,15.8,3.1,24.4,0.3c0.8,2.1,1.8,4.1,2.9,6c0.1,0.1,0.1,0.2,0.2,0.4
			c0.5,0.8,1,1.6,1.5,2.3c0.6,0.9,1.2,1.7,1.9,2.5l0,0c0.9,1.1,1.9,2.1,2.9,3c0.5,0.4,1,0.9,1.5,1.3c1.6,1.2,3.3,2.3,5.1,3.1
			c23.6,11,59.7-16.5,72.1-43c0.8-1.7,1.5-3.3,2.1-5c0.2-0.4,0.3-0.8,0.4-1.3c0.7-2.1,1.3-4.2,1.8-6.3s0.8-4.2,1.1-6.2
			c0.1-0.8,0.2-1.6,0.2-2.5C669.7,671.5,669.7,668.7,669.5,665.9z"/>
		<g>
			<g>
				<g>
					<path class="st21" d="M615.6,624.5l-5.4-2.5l9-29.6l13.4,6.3L615.6,624.5z"/>
					<path class="st28" d="M599.7,603c7.3,3.4,13.1,8.5,17.3,14.6c7.8-0.5,15.7,0.8,23,4.2c23.6,11,31.8,39.4,19.4,66
						c-12.4,26.6-48.6,54.1-72.1,43c-7.3-3.4-12.5-10.1-15.9-18.5c-8.6,2.8-17.1,3.1-24.4-0.3c-23.6-11-25.6-56.4-13.2-83
						C546.1,602.5,576.1,591.9,599.7,603z"/>
				</g>
				<path class="st3" d="M640,621.8c-6.3-2.9-13-4.3-19.7-4.3l12.4-18.8l-6.7-3.2l-54.6,116.8c3.4,8.4,8.6,15.1,15.9,18.5
					c23.6,11,59.7-16.5,72.1-43C671.7,661.2,663.5,632.8,640,621.8z"/>
			</g>
			<path class="st29" d="M581.7,633.1c-3,6.3-10.5,9-16.8,6.1c-6.3-3-9-10.5-6.1-16.8c3-6.3,10.5-9,16.8-6.1
				C581.9,619.3,584.6,626.8,581.7,633.1z"/>
		</g>
	</g>
	<g>
		<path class="st0" d="M896.9,647.4L896.9,647.4c-0.1-0.1-0.1-0.1-0.2-0.2l0,0c-0.1,0-0.1-0.1-0.2-0.1c0,0,0,0-0.1,0
			s-0.1-0.1-0.2-0.1c0,0,0,0-0.1,0s-0.2-0.1-0.2-0.1l0,0c-0.1,0-0.2-0.1-0.3-0.1h-0.1c-0.1,0-0.1,0-0.2,0h-0.1c-0.1,0-0.1,0-0.2,0
			h-0.1c-0.1,0-0.2,0-0.3,0c-2.9,0.2-5.8,0.3-8.7,0.2c-1.2,0-2.3-0.1-3.5-0.2c-2.3-0.2-4.7-0.5-7-0.9c-2.9-0.5-5.9-1.2-8.8-2.1
			c-12-3.7-22.4-10.2-30.7-18.5c-3-3-5.7-6.2-8.1-9.6c-1.4-2-2.8-4.2-4-6.3c-0.4-0.7-0.8-1.5-1.2-2.2c-3.5-6.6-5.9-13.8-7.2-21.3
			c-0.4-2.3-1.2-4.5-2.2-6.5c-0.1-0.2-0.2-0.4-0.3-0.6c-0.3-0.6-0.6-1.1-1-1.6c-0.4-0.6-0.8-1.2-1.3-1.8c-0.1-0.1-0.1-0.1-0.2-0.2
			c-0.3-0.4-0.6-0.7-1-1.1c-0.2-0.2-0.4-0.4-0.5-0.6c-2.6-2.6-5.8-4.5-9.4-5.6c-0.3-0.1-0.6-0.2-0.8-0.2c-0.1,0-0.2,0-0.3-0.1
			c-0.2,0-0.4-0.1-0.6-0.1c-0.1,0-0.2,0-0.3-0.1c-0.2,0-0.4-0.1-0.6-0.1c-0.1,0-0.2,0-0.3-0.1c-0.2,0-0.4-0.1-0.6-0.1
			c-0.1,0-0.1,0-0.2,0c-0.3,0-0.6-0.1-0.8-0.1h-0.1c-0.3,0-0.5,0-0.8-0.1c-0.1,0-0.1,0-0.2,0c-0.2,0-0.4,0-0.6,0c-0.1,0-0.1,0-0.2,0
			c-0.2,0-0.4,0-0.7,0c-0.1,0-0.1,0-0.2,0c-0.6,0-1.1,0-1.7,0.1l0,0c-0.3,0-0.5,0.1-0.8,0.1h-0.1c-0.2,0-0.5,0.1-0.7,0.1h-0.1
			c-0.6,0.1-1.2,0.2-1.7,0.4l-0.1-15.4c0-0.1,0-0.2-0.1-0.3c-0.1-0.2-0.4-0.4-0.6-0.4l-3.8,0.4l0,0l-3.8,0.4c-0.4,0-0.6,0.4-0.6,0.8
			l3.2,16.8c-7.5,4.3-12.5,12.8-11.5,22.6c3.4,31.6,25.1,59.7,57.4,69.7c24.4,7.5,49.6,3.1,69.4-10
			C898.2,650.8,898.1,648.6,896.9,647.4z"/>
		<g>
			<g>
				<path class="st21" d="M780.2,568.7l-5.4,0.5l-3.7-19.5c-0.1-0.4,0.2-0.7,0.6-0.8l7.7-0.8c0.4,0,0.7,0.3,0.7,0.6L780.2,568.7z"/>
				<path class="st7" d="M780,548.8c0-0.4-0.3-0.7-0.7-0.6l-3.8,0.4l2,20.3l2.7-0.3L780,548.8z"/>
			</g>
			<path class="st22" d="M792.6,564.6L792.6,564.6c-15.9-4.9-31.5,8.1-29.8,24.6c3.4,31.6,25.1,59.7,57.4,69.7
				c24.4,7.5,49.6,3.1,69.4-10c2.5-1.7,1.2-5.5-1.8-5.3c-9.2,0.8-18.7-0.2-28.1-3c-27.5-8.5-46.5-31.4-51.2-57.9
				C807,574,800.8,567.1,792.6,564.6z"/>
			<path class="st7" d="M887.8,643.5c-9.2,0.8-18.7-0.2-28.1-3c-27.5-8.5-46.5-31.4-51.2-57.9c-1.5-8.5-7.7-15.4-15.9-18l0,0
				c-4.8-1.5-9.6-1.3-13.9,0.1c-1.9,3.8-2.9,8.2-2.4,13c3.4,31.6,25.1,59.7,57.4,69.7c19.3,5.9,39.1,4.4,56.4-3
				C889.5,643.8,888.7,643.4,887.8,643.5z"/>
		</g>
	</g>
	<g>
		<path class="st0" d="M1040.2,430.9l-1.8-3.4l0,0l-1.8-3.4c-0.2-0.3-0.6-0.4-0.9-0.2l-14.3,9.4c-6.9-5.3-16.7-6.7-25.2-2
			c-27.9,15.2-45.6,46-42.4,79.7c2.4,25.4,16.2,47,35.8,60.3c1.7,1.1,3.7,0.2,4.3-1.3l0,0l0,0c0-0.1,0.1-0.2,0.1-0.3l0,0
			c0-0.1,0-0.1,0.1-0.2c0,0,0,0,0-0.1s0-0.1,0-0.2c0,0,0,0,0-0.1s0-0.2,0-0.3l0,0c0-0.1,0-0.2,0-0.3v-0.1c0-0.1,0-0.1,0-0.2v-0.1
			c0-0.1,0-0.1-0.1-0.2v-0.1c0-0.1-0.1-0.2-0.1-0.3c-0.5-1-1-2.1-1.5-3.1c-3.4-7.4-5.6-15.4-6.4-24c-0.4-4-0.4-8-0.2-11.9
			c0.1-0.9,0.1-1.7,0.2-2.6c0.1-1.3,0.3-2.6,0.5-3.8c0.1-0.4,0.1-0.8,0.2-1.3c0.5-3,1.2-5.9,2.1-8.7c0.1-0.4,0.2-0.8,0.4-1.2
			c0.5-1.6,1.1-3.2,1.7-4.8c0.3-0.8,0.6-1.6,1-2.3c0.7-1.5,1.4-3,2.2-4.5c0.4-0.7,0.8-1.5,1.2-2.2c0.8-1.5,1.7-2.9,2.6-4.3
			c0.5-0.7,0.9-1.4,1.4-2.1c1.2-1.7,2.5-3.4,3.8-4.9c2.1-2.6,4.5-5,6.9-7.2c0.6-0.6,1.2-1.1,1.9-1.7c1.3-1.1,2.6-2.1,3.9-3.1
			c1-0.7,2-1.5,3.1-2.2c0.3-0.2,0.7-0.5,1.1-0.7c1.8-1.2,3.4-2.6,4.8-4.1c0.7-0.8,1.3-1.6,1.9-2.5c0.1-0.2,0.3-0.4,0.4-0.7
			c0.8-1.3,1.5-2.7,2-4.2c0.1-0.2,0.2-0.5,0.3-0.7c1-3,1.4-6.2,1.1-9.4l0,0c0-0.3-0.1-0.6-0.1-0.9c0-0.1,0-0.2,0-0.3
			c0-0.2-0.1-0.4-0.1-0.6c0-0.1,0-0.2-0.1-0.3c0-0.2-0.1-0.4-0.1-0.6c0-0.1,0-0.2-0.1-0.3c0-0.2-0.1-0.4-0.2-0.6c0-0.1,0-0.1,0-0.2
			c-0.1-0.3-0.1-0.6-0.2-0.8v-0.1c-0.1-0.2-0.1-0.5-0.2-0.7c0-0.1,0-0.1-0.1-0.2c-0.1-0.2-0.1-0.4-0.2-0.6c0-0.1-0.1-0.1-0.1-0.2
			c-0.1-0.2-0.2-0.4-0.3-0.6c0,0,0-0.1-0.1-0.1c-0.2-0.5-0.5-1-0.7-1.5l0,0c-0.1-0.2-0.3-0.5-0.4-0.7c0,0,0-0.1-0.1-0.1
			c-0.1-0.2-0.3-0.4-0.4-0.6c0,0,0-0.1-0.1-0.1c-0.3-0.5-0.7-1-1-1.5l14.1-6c0,0,0.1,0,0.1-0.1c0.1-0.1,0.2-0.3,0.3-0.4
			C1040.3,431.2,1040.2,431.1,1040.2,430.9z"/>
		<g>
			<g>
				<path class="st21" d="M1015.4,436.4l-2.6-4.8l16.6-10.9c0.3-0.2,0.7-0.1,0.9,0.2l3.6,6.8c0.2,0.3,0,0.7-0.3,0.9L1015.4,436.4z"
					/>
				<path class="st7" d="M1033.6,428.7c0.3-0.1,0.5-0.6,0.3-0.9l-1.8-3.4l-18,9.6l1.3,2.4L1033.6,428.7z"/>
			</g>
			<path class="st28" d="M1023.9,446.3L1023.9,446.3c-1.6-16.5-19.5-26-34.1-18.1c-27.9,15.2-45.6,46-42.4,79.7
				c2.4,25.4,16.2,47,35.8,60.3c2.5,1.7,5.6-1,4.2-3.7c-4.2-8.2-7-17.3-7.9-27.1c-2.7-28.6,11.3-55,33.9-69.5
				C1020.7,463.3,1024.7,454.9,1023.9,446.3z"/>
			<path class="st7" d="M987.4,564.5c-4.2-8.2-7-17.3-7.9-27.1c-2.7-28.6,11.3-55,33.9-69.5c7.3-4.7,11.3-13,10.5-21.6l0,0
				c-0.5-5-2.5-9.4-5.4-12.8c-4.3-0.3-8.7,0.5-12.9,2.8c-27.9,15.2-45.6,46-42.4,79.7c1.9,20.1,10.9,37.8,24.3,50.9
				C987.8,566.2,987.8,565.3,987.4,564.5z"/>
		</g>
	</g>
	<g>
		<path class="st0" d="M1188.5,378.1c-0.2-0.6-0.3-1.1-0.5-1.6c-0.4-1.1-0.7-2.1-1.1-3.2s-0.8-2.1-1.2-3.1s-0.9-2-1.3-2.9
			c-0.4-0.8-0.8-1.5-1.2-2.3c-0.3-0.6-0.7-1.2-1-1.8c-0.3-0.4-0.5-0.8-0.8-1.3c-0.5-0.8-1.1-1.6-1.7-2.4c-3.5-4.6-7.6-7.8-12.5-9.3
			c-26-7.8-63.1,39.2-71,65.2c-7.8,26,6.9,53.4,32.9,61.3c3.7,1.1,7.3,1.8,11,2c0.8,0.1,1.6,0.1,2.4,0.1c0.4,0,0.8,0,1.2,0
			c21-0.2,40.3-13.9,46.6-35C1195.1,428,1195.1,399.6,1188.5,378.1z"/>
		<g>
			<path class="st30" d="M1182.3,437c-7.8,26-35.3,40.7-61.3,32.9c-26-7.8-40.7-35.3-32.9-61.3c7.8-26,45-73,71-65.2
				C1185.1,351.3,1190.1,411,1182.3,437z"/>
			<path class="st29" d="M1131.2,393.6c-1.8,6.1-8.2,9.5-14.3,7.7c-6.1-1.8-9.5-8.2-7.7-14.3c1.8-6.1,8.2-9.5,14.3-7.7
				C1129.6,381.1,1133,387.5,1131.2,393.6z"/>
			<path class="st29" d="M1141.4,369.3c-0.9,3.1-4.3,4.9-7.4,4s-4.9-4.3-4-7.4s4.3-4.9,7.4-4
				C1140.6,362.9,1142.4,366.2,1141.4,369.3z"/>
			<path class="st3" d="M1159,343.4l-38,126.5c26,7.8,53.4-6.9,61.3-32.9C1190.1,411,1185.1,351.3,1159,343.4z"/>
		</g>
	</g>
	<g>
		<path class="st0" d="M1324.1,512.4c-8.7-12.1-27.7-27.2-46.7-35.9c-0.5-0.2-1.1-0.5-1.6-0.7c-4.4-1.9-8.7-3.4-12.9-4.5
			c-0.5-0.1-1-0.3-1.6-0.4c-3.1-0.7-6.2-1.2-9.1-1.3c-0.5,0-1,0-1.4,0c-1,0-1.9,0-2.8,0.1c-1.4,0.1-2.7,0.3-4,0.6
			c-0.9,0.2-1.7,0.4-2.5,0.7c-2,0.7-3.9,1.6-5.7,2.9c-22,15.9-7.4,73.9,8.5,96c15.9,22,46.6,27.1,68.6,11.2c2.8-2,5.2-4.2,7.5-6.6
			c0.6-0.6,1.1-1.2,1.6-1.8s1-1.3,1.5-1.9c0.7-1,1.4-2,2.1-3c0.8-1.2,1.5-2.5,2.2-3.8c0.1-0.2,0.2-0.5,0.4-0.7
			c0.5-0.9,0.9-1.9,1.3-2.9c0.8-1.9,1.5-3.9,2.1-5.9C1335.4,540.6,1333.2,525.1,1324.1,512.4z"/>
		<g>
			<path class="st30" d="M1316.4,513.1c15.9,22,10.8,52.8-11.2,68.6c-22,15.9-52.8,10.8-68.6-11.2c-15.9-22-30.5-80.1-8.5-96
				C1250.2,458.7,1300.6,491,1316.4,513.1z"/>
			<path class="st29" d="M1250.9,527.2c3.7,5.2,2.5,12.3-2.6,16c-5.2,3.7-12.3,2.5-16-2.6c-3.7-5.2-2.5-12.3,2.6-16
				S1247.2,522,1250.9,527.2z"/>
			<path class="st29" d="M1237.9,504.3c1.9,2.7,1.3,6.4-1.4,8.3c-2.7,1.9-6.4,1.3-8.3-1.4c-1.9-2.7-1.3-6.4,1.4-8.3
				S1236,501.6,1237.9,504.3z"/>
			<path class="st3" d="M1228.1,474.5l77.1,107.2c22-15.9,27.1-46.6,11.2-68.6C1300.6,491,1250.2,458.7,1228.1,474.5z"/>
		</g>
	</g>
	<g>
		<path class="st0" d="M390.6,549.7L390.6,549.7c0.2-0.6,0.3-1.1,0.4-1.6c0,0,0,0,0-0.1c0.1-0.5,0.3-1.1,0.4-1.6v-0.1
			c0.1-0.5,0.2-1,0.3-1.6v-0.1c0.1-0.5,0.2-1,0.3-1.5V543c0.1-0.5,0.2-1,0.2-1.5c0-0.1,0-0.1,0-0.2c0.1-0.5,0.1-1,0.2-1.5
			c0-0.1,0-0.1,0-0.2c0.1-0.5,0.1-1,0.2-1.5c0-0.1,0-0.2,0-0.2c0-0.5,0.1-1,0.1-1.4c0-0.1,0-0.2,0-0.3c0-0.5,0.1-0.9,0.1-1.4
			c0-0.1,0-0.2,0-0.3c0-0.5,0-0.9,0.1-1.4c0-0.1,0-0.2,0-0.3c0-0.5,0-0.9,0-1.4c0-0.1,0-0.2,0-0.4c0-0.4,0-0.9,0-1.3
			c0-0.1,0-0.3,0-0.4c0-0.4,0-0.9,0-1.3c0-0.1,0-0.3,0-0.4c0-0.4,0-0.8-0.1-1.3c0-0.2,0-0.3,0-0.5c0-0.4-0.1-0.8-0.1-1.2
			c0-0.2,0-0.3-0.1-0.5c0-0.4-0.1-0.8-0.1-1.2c0-0.2,0-0.4-0.1-0.5c0-0.4-0.1-0.8-0.1-1.2c0-0.2-0.1-0.4-0.1-0.6
			c-0.1-0.4-0.1-0.7-0.2-1.1c0-0.2-0.1-0.4-0.1-0.6c-0.1-0.4-0.1-0.7-0.2-1.1c0-0.2-0.1-0.4-0.1-0.6c-0.1-0.4-0.1-0.7-0.2-1.1
			c0-0.2-0.1-0.4-0.1-0.6c-0.1-0.3-0.2-0.7-0.2-1c-0.1-0.2-0.1-0.5-0.2-0.7c-0.1-0.3-0.2-0.7-0.3-1c-0.1-0.2-0.1-0.5-0.2-0.7
			c-0.1-0.3-0.2-0.6-0.3-0.9c-0.1-0.3-0.2-0.5-0.2-0.8c-0.1-0.3-0.2-0.6-0.3-0.9c-0.1-0.3-0.2-0.5-0.3-0.8c-0.1-0.3-0.2-0.6-0.3-0.9
			c-0.1-0.3-0.2-0.5-0.3-0.8c-0.1-0.3-0.2-0.6-0.3-0.9c-0.1-0.3-0.2-0.5-0.3-0.8c-0.1-0.3-0.2-0.5-0.3-0.8c-0.1-0.3-0.2-0.6-0.4-0.9
			c-0.1-0.3-0.2-0.5-0.3-0.8c-0.1-0.3-0.3-0.6-0.4-0.9c-0.1-0.2-0.2-0.5-0.3-0.7c-0.1-0.3-0.3-0.6-0.5-0.9c-0.1-0.2-0.2-0.4-0.3-0.7
			c-0.2-0.3-0.3-0.6-0.5-1c-0.1-0.2-0.2-0.4-0.3-0.6c-0.2-0.4-0.4-0.7-0.6-1.1c-0.1-0.2-0.2-0.3-0.3-0.5c-0.2-0.4-0.5-0.9-0.8-1.3
			c0-0.1-0.1-0.2-0.1-0.2c-0.3-0.5-0.6-1-1-1.6c-0.2-0.3-0.4-0.6-0.6-0.9c-9.4-14.4-13-31.8-10.6-48.8c0.4-2.9,0.7-5.7,0.7-8.6
			c0-0.9,0-1.9,0-2.8c-0.2-11.2-3.1-22-9.1-31.4c-10.9-17.3-30-27.1-52.3-29.2c-0.7-0.1-1.4-0.1-2.2-0.2c-5.7-0.4-11.7-0.3-17.7,0.3
			c-2.4,0.2-4.7,0.5-7.1,0.9c-3.1,0.5-6.2,1.1-9.3,1.9c-1.6,0.4-3.1,0.8-4.7,1.3c-0.8,0.2-1.6,0.5-2.4,0.7c-1.6,0.5-3.1,1-4.7,1.6
			s-3.1,1.1-4.7,1.8c-1,0.4-2,0.8-3,1.3c-1.1,0.5-2.2,0.9-3.3,1.4c-1,0.5-2,0.9-3.1,1.4c-4.7,2.3-9.3,4.8-13.8,7.7
			c-48.3,30.6-69.2,84.2-46.7,119.8c8,12.7,20.5,21.4,35.4,25.9c16.4,5,30.4,16,39.4,30.6c0.1,0.2,0.3,0.5,0.4,0.7
			c20.8,32.9,64.1,42.7,97.1,22.1c0.1-0.1,0.2-0.1,0.2-0.2l0,0l0,0c14.9-9.4,25.1-23.5,29.8-39.2l0,0
			C390.3,550.8,390.5,550.2,390.6,549.7z"/>
		<g>
			<g>
				<path class="st31" d="M252.9,560c0.1,0.2,0.3,0.5,0.4,0.7c20.8,32.9,64.1,42.7,97.1,22.1c33.1-20.8,43-64.5,22.2-97.5
					c-0.2-0.3-0.4-0.6-0.6-0.9c-9.4-14.4-13-31.8-10.6-48.8c2.2-15.3-0.3-30.2-8.3-42.8c-22.5-35.6-80-39.7-128.3-9.2
					c-48.3,30.6-69.2,84.2-46.7,119.8c8,12.7,20.5,21.4,35.4,25.9C230,534.4,243.9,545.4,252.9,560z"/>
				<path class="st10" d="M229.7,391.2c11-7,22.7-12.2,34.8-15.4c11.5-3.1,22.8-4.2,33.6-3.5c21.3,1.5,38.2,10.5,47.5,25.2
					c6.5,10.4,9,23,7,36.7c-2.8,19.4,1.4,38.9,11.9,55c0.2,0.3,0.3,0.5,0.5,0.8c8.8,13.9,11.6,30.4,8,46.4s-13.3,29.7-27.1,38.5
					l-0.2,0.1c-13.9,8.7-30.4,11.5-46.3,7.9c-16-3.6-29.6-13.3-38.4-27.1c-0.1-0.2-0.2-0.4-0.4-0.6c-10.3-16.7-26.1-28.9-44.4-34.5
					c-13.3-4.1-23.8-11.7-30.4-22.1c-9.3-14.8-10.2-33.8-2.4-53.7c3.9-10.1,9.8-19.8,17.5-28.8C208.9,406.6,218.6,398.2,229.7,391.2
					z"/>
				<g>
					<path class="st31" d="M236.4,441.5c10.2,0.5,18.1,9.2,17.6,19.4l0,0c-0.5,10.2-9.2,18.1-19.4,17.6l0,0
						c-10.2-0.5-18.1-9.2-17.6-19.4l0,0C217.5,448.8,226.2,440.9,236.4,441.5L236.4,441.5z"/>
					<path class="st10" d="M224.2,467.1c-3.9-6.2-2.1-14.4,4.1-18.3c6.2-3.9,14.4-2.1,18.3,4.1c3.9,6.2,2.1,14.4-4.1,18.3
						C236.4,475.1,228.1,473.3,224.2,467.1z"/>
				</g>
			</g>
			<path class="st3" d="M372.6,485.3c-0.2-0.3-0.4-0.6-0.6-0.9c-9.4-14.4-13-31.8-10.6-48.8c2.2-15.3-0.3-30.2-8.3-42.8
				c-22.5-35.6-80-39.7-128.3-9.2l125.8,199C383.6,561.8,393.4,518.2,372.6,485.3z"/>
		</g>
	</g>
	<g>
		<path class="st0" d="M177.7,858.2L177.7,858.2c0.5-0.4,0.9-0.8,1.3-1.2c0,0,0,0,0.1-0.1c0.4-0.4,0.8-0.8,1.2-1.3
			c0,0,0-0.1,0.1-0.1c0.1-0.1,0.2-0.3,0.3-0.4l0,0c0.2-0.3,0.4-0.6,0.6-0.9c0,0,0-0.1,0.1-0.1c0.1-0.1,0.2-0.3,0.3-0.4
			c0-0.1,0.1-0.1,0.1-0.2c0.3-0.4,0.5-0.9,0.7-1.4c0-0.1,0.1-0.2,0.1-0.2c0.1-0.1,0.1-0.3,0.2-0.4c0-0.1,0.1-0.2,0.1-0.3
			c0.1-0.2,0.2-0.4,0.3-0.6c0-0.1,0.1-0.2,0.1-0.3s0.1-0.2,0.1-0.4c0-0.1,0.1-0.3,0.1-0.4c0-0.1,0.1-0.2,0.1-0.4
			c0.1-0.2,0.1-0.4,0.2-0.6c0-0.1,0-0.2,0.1-0.3c0-0.2,0.1-0.3,0.1-0.5c0-0.1,0-0.2,0.1-0.3c0-0.2,0.1-0.5,0.1-0.7
			c0-0.1,0-0.2,0-0.2c0-0.2,0-0.4,0.1-0.5c0-0.1,0-0.2,0-0.3c0-0.2,0-0.4,0-0.6c0-0.1,0-0.1,0-0.2c0-0.3,0-0.5,0-0.8
			c0-0.1,0-0.2,0-0.2c0-0.2,0-0.4,0-0.6c0-0.1,0-0.1,0-0.2c0-0.3,0-0.5-0.1-0.8c0-0.1,0-0.1,0-0.2c0-0.2-0.1-0.4-0.1-0.6
			c0-0.1,0-0.2,0-0.2c0-0.3-0.1-0.5-0.2-0.8l0,0c0-0.2-0.1-0.4-0.1-0.6v-0.1c0-0.2-0.1-0.4-0.1-0.5v-0.1c-0.1-0.2-0.1-0.4-0.2-0.6
			v-0.1c-0.1-0.2-0.1-0.4-0.2-0.6v-0.1c-0.1-0.2-0.2-0.5-0.2-0.7l0,0c-0.1-0.2-0.2-0.4-0.3-0.7c0-0.1,0-0.1-0.1-0.2
			c-0.1-0.2-0.2-0.5-0.3-0.7l0,0c-0.1-0.3-0.2-0.5-0.3-0.8c0,0,0-0.1-0.1-0.1c-0.1-0.2-0.2-0.5-0.3-0.7c0,0,0-0.1-0.1-0.1
			c-0.1-0.3-0.2-0.5-0.4-0.8c0,0,0,0,0-0.1c-0.1-0.2-0.2-0.5-0.4-0.7c0,0,0-0.1-0.1-0.1c-0.3-0.5-0.6-1.1-0.8-1.7c0,0,0-0.1-0.1-0.1
			c-0.1-0.3-0.3-0.5-0.4-0.8l0,0c-0.2-0.3-0.3-0.6-0.5-0.9l0,0c-0.2-0.3-0.3-0.6-0.5-0.8c0,0,0,0,0-0.1c-0.3-0.6-0.7-1.2-1.1-1.7
			c0,0,0,0,0-0.1c-0.4-0.6-0.7-1.1-1.1-1.7l0,0c-0.6-0.9-1.2-1.7-1.8-2.5l0,0c-0.4-0.5-0.8-1.1-1.3-1.6l0,0
			c-1.1-1.3-2.2-2.5-3.3-3.5l0,0c-0.5-0.4-0.9-0.8-1.4-1.2l-8.8-40.2l0,0l0,0l-0.3,0.1c0-1.2,0-2.5,0-3.7c0,0,0,0,0-0.1
			c0-0.6,0-1.2,0-1.8c0-0.1,0-0.1,0-0.2c0-1.9,0-3.8-0.1-5.8c0-0.1,0-0.2,0-0.3c0-0.5,0-1,0-1.6c0-0.1,0-0.3,0-0.4c0-0.5,0-1,0-1.6
			c0-0.1,0-0.2,0-0.4c0-0.6,0-1.2,0-1.8c0-0.1,0-0.1,0-0.2c0-1.3,0-2.6-0.1-4c0-0.2,0-0.4,0-0.6c0-0.5,0-0.9,0-1.4
			c0-0.2,0-0.5,0-0.7c0-0.5,0-0.9,0-1.4c0-0.2,0-0.4,0-0.6c0-0.5,0-1.1,0-1.6c0-0.1,0-0.3,0-0.4c0-0.7,0-1.4,0-2c0-0.1,0-0.2,0-0.3
			c0-0.6,0-1.1,0-1.7c0-0.2,0-0.5,0-0.7c0-0.4,0-0.9,0-1.3c0-0.3,0-0.5,0-0.8c0-0.4,0-0.9,0-1.3c0-0.2,0-0.5,0-0.7c0-0.5,0-1,0-1.5
			c0-0.2,0-0.4,0-0.6c0-0.7,0-1.4-0.1-2c0-0.2,0-0.5,0-0.7c0-0.4,0-0.9,0-1.3c0-0.3,0-0.6,0-0.9c0-0.4,0-0.8,0-1.2
			c0-0.3,0-0.6,0-0.9c0-0.4,0-0.9,0-1.3c0-0.3,0-0.5,0-0.8c0-0.5,0-0.9,0-1.4c0-0.2,0-0.5,0-0.7c0-0.7,0-1.4-0.1-2.1
			c0-0.2,0-0.5,0-0.7c0-0.5,0-0.9,0-1.4c0-0.3,0-0.6,0-0.9c0-0.4,0-0.8,0-1.3c0-0.3,0-0.6,0-0.9c0-0.4,0-0.8,0-1.2
			c0-0.3,0-0.6,0-0.9c0-0.5,0-0.9-0.1-1.4c0-0.2,0-0.5,0-0.7c0-0.7-0.1-1.4-0.1-2.1c0-0.3,0-0.6,0-0.9c0-0.4,0-0.9-0.1-1.3
			c0-0.3,0-0.6,0-1s0-0.8-0.1-1.2c0-0.3,0-0.7,0-1c0-0.4,0-0.8-0.1-1.2c0-0.3,0-0.6,0-1c0-0.5,0-0.9-0.1-1.4c0-0.3,0-0.5,0-0.8
			c0-0.7-0.1-1.4-0.1-2.1c0-0.3,0-0.6,0-0.9c0-0.4,0-0.9-0.1-1.3c0-0.3,0-0.6,0-1s0-0.8-0.1-1.2c0-0.3,0-0.6,0-1s0-0.8-0.1-1.3
			c0-0.3,0-0.6,0-0.9c0-0.5-0.1-1-0.1-1.5c0-0.2,0-0.5,0-0.7c0-0.7-0.1-1.4-0.1-2.1c0-0.3,0-0.6,0-0.9c0-0.4,0-0.9-0.1-1.3
			c0-0.3,0-0.6-0.1-1c0-0.4,0-0.8-0.1-1.2c0-0.3,0-0.6-0.1-1c0-0.4,0-0.8-0.1-1.2c0-0.3,0-0.6-0.1-0.9c0-0.5-0.1-0.9-0.1-1.4
			c0-0.3,0-0.5,0-0.8c0-0.7-0.1-1.4-0.1-2.1c0-0.3,0-0.6-0.1-0.9c0-0.4-0.1-0.8-0.1-1.3c0-0.3,0-0.6-0.1-1c0-0.4-0.1-0.8-0.1-1.2
			c0-0.3,0-0.6-0.1-0.9c0-0.4-0.1-0.9-0.1-1.3c0-0.3,0-0.6-0.1-0.9c0-0.5-0.1-1-0.1-1.5c0-0.2,0-0.5,0-0.7c0-0.7-0.1-1.3-0.1-2
			c0-0.3,0-0.6-0.1-0.9c0-0.4-0.1-0.8-0.1-1.3c0-0.3,0-0.6-0.1-0.9c0-0.4-0.1-0.8-0.1-1.2c0-0.3,0-0.6-0.1-0.9
			c0-0.4-0.1-0.8-0.1-1.2c0-0.3,0-0.6-0.1-0.9c0-0.5-0.1-1-0.1-1.4c0-0.3-0.1-0.6-0.1-0.9c0-0.6-0.1-1.2-0.1-1.7
			c0-0.3,0-0.5-0.1-0.8c0-0.4-0.1-0.8-0.1-1.3c0-0.3-0.1-0.6-0.1-0.9c0-0.4-0.1-0.8-0.1-1.2c0-0.3-0.1-0.6-0.1-0.9
			c0-0.4-0.1-0.8-0.1-1.2c0-0.3-0.1-0.6-0.1-0.8c0-0.5-0.1-1-0.1-1.6c0-0.2,0-0.5-0.1-0.7c-0.1-0.6-0.1-1.1-0.2-1.7
			c0-0.3-0.1-0.6-0.1-0.8c0-0.4-0.1-0.8-0.1-1.2c0-0.3-0.1-0.6-0.1-0.9c0-0.4-0.1-0.7-0.1-1.1c0-0.3-0.1-0.6-0.1-0.9
			c0-0.4-0.1-0.7-0.1-1.1c0-0.3-0.1-0.6-0.1-0.8c-0.1-0.5-0.1-1-0.2-1.4c0-0.2,0-0.3-0.1-0.5c-4.7-42.2-13.4-79.3-20.1-103.6
			c-5.1-18.6-8.9-29.6-8.9-29.6l0,0l0,0c0,0-0.1,0.7-0.2,2.1c0,0,0,0,0,0.1c0,0.2,0,0.4-0.1,0.6l0,0c0,0.2,0,0.4-0.1,0.7
			c0,0.1,0,0.1,0,0.2c0,0.2,0,0.4-0.1,0.6c0,0.1,0,0.1,0,0.2c0,0.2,0,0.5-0.1,0.7v0.1c0,0.3,0,0.6-0.1,0.8c0,0.1,0,0.2,0,0.3
			c0,0.2,0,0.4-0.1,0.6c0,0.1,0,0.2,0,0.3c0,0.3-0.1,0.6-0.1,1c0,0.1,0,0.2,0,0.2c0,0.3,0,0.5-0.1,0.8c0,0.1,0,0.3,0,0.4
			c0,0.2,0,0.5-0.1,0.7c0,0.1,0,0.3,0,0.4c0,0.4-0.1,0.7-0.1,1.1c0,0.1,0,0.3,0,0.4c0,0.3,0,0.5-0.1,0.8c0,0.2,0,0.4,0,0.5
			c0,0.3,0,0.5-0.1,0.8c0,0.2,0,0.3,0,0.5c0,0.4-0.1,0.8-0.1,1.3c0,0.2,0,0.4,0,0.6c0,0.3,0,0.6-0.1,0.8c0,0.2,0,0.4,0,0.7
			s0,0.6-0.1,0.9c0,0.3,0,0.5,0,0.8c0,0.4,0,0.8-0.1,1.2c0,0.2,0,0.5,0,0.7c0,0.3,0,0.6,0,0.9c0,0.3,0,0.5,0,0.8
			c0,0.4,0,0.7-0.1,1.1c0,0.3,0,0.7-0.1,1c0,0.4,0,0.7-0.1,1.1c0,0.3,0,0.5,0,0.8s0,0.6,0,1c0,0.3,0,0.5,0,0.8c0,0.4,0,0.9-0.1,1.3
			c0,0.4,0,0.7,0,1.1c0,0.3,0,0.7,0,1s0,0.6,0,0.9c0,0.3,0,0.7,0,1s0,0.6,0,0.9c0,0.6,0,1.2-0.1,1.8c0,0.3,0,0.6,0,0.9
			c0,0.4,0,0.7,0,1.1c0,0.3,0,0.7,0,1c0,0.4,0,0.8,0,1.2c0,0.3,0,0.6,0,0.9c0,0.6,0,1.3,0,1.9c0,0.3,0,0.7,0,1c0,0.4,0,0.8,0,1.2
			c0,0.3,0,0.7,0,1c0,0.5,0,0.9,0,1.4c0,0.4,0,0.9,0,1.3c0,0.5,0,1,0,1.6c0,0.3,0,0.7,0,1c0,0.4,0,0.9,0,1.3c0,0.3,0,0.7,0,1
			c0,0.6,0,1.2,0,1.8c0,0.4,0,0.8,0,1.2c0,0.5,0,1,0,1.5c0,0.4,0,0.7,0,1.1c0,0.5,0,0.9,0,1.4c0,0.3,0,0.7,0,1c0,0.7,0,1.5,0,2.3
			c0,0.3,0,0.6,0,0.9c0,0.5,0,1,0,1.6c0,0.4,0,0.7,0,1.1c0,0.5,0,1.1,0,1.6c0,0.3,0,0.6,0,1c0,0.8,0,1.6,0,2.4c0,0.3,0,0.7,0,1
			c0,0.5,0,1.1,0,1.6c0,0.4,0,0.7,0,1.1c0,0.6,0,1.2,0,1.8c0,0.3,0,0.5,0,0.8l0,0c-0.3-0.9-0.5-1.7-0.8-2.6
			c-0.1-0.3-0.2-0.5-0.2-0.8c-0.2-0.6-0.4-1.3-0.6-1.9c-0.1-0.3-0.2-0.5-0.2-0.8c-0.3-0.8-0.5-1.7-0.8-2.5l0,0
			c-0.3-0.8-0.5-1.7-0.8-2.5c-0.1-0.3-0.2-0.5-0.2-0.7c-0.2-0.6-0.4-1.2-0.6-1.8c-0.1-0.2-0.2-0.5-0.2-0.7c-0.3-0.8-0.5-1.6-0.8-2.4
			l0,0c-0.3-0.8-0.5-1.6-0.8-2.4c-0.1-0.2-0.2-0.5-0.2-0.7c-0.2-0.6-0.4-1.2-0.6-1.8c-0.1-0.2-0.2-0.4-0.2-0.7
			c-0.5-1.5-1-3.1-1.6-4.6c-0.1-0.2-0.2-0.4-0.2-0.7c-0.2-0.6-0.4-1.1-0.6-1.6c-0.1-0.2-0.2-0.4-0.2-0.6c-0.5-1.5-1-2.9-1.5-4.3
			c-0.1-0.2-0.1-0.4-0.2-0.6c-0.2-0.5-0.4-1-0.6-1.6c-0.1-0.2-0.1-0.4-0.2-0.6c-0.5-1.4-1-2.7-1.5-4c-0.1-0.2-0.1-0.4-0.2-0.5
			c-0.2-0.5-0.4-1-0.5-1.5c-0.1-0.2-0.1-0.4-0.2-0.5c-0.5-1.3-1-2.5-1.4-3.7c-0.1-0.2-0.1-0.3-0.2-0.5c-0.2-0.5-0.3-0.9-0.5-1.4
			c-0.1-0.2-0.1-0.3-0.2-0.5c-0.5-1.2-0.9-2.3-1.3-3.4c-0.1-0.2-0.1-0.3-0.2-0.5c-0.2-0.4-0.3-0.8-0.5-1.3c-0.1-0.1-0.1-0.3-0.2-0.4
			c-0.4-1.1-0.8-2.1-1.2-3.1c-0.1-0.1-0.1-0.3-0.2-0.4c-0.2-0.4-0.3-0.7-0.5-1.1c-0.1-0.1-0.1-0.3-0.2-0.4c-0.4-1-0.8-1.9-1.1-2.8
			c0-0.1-0.1-0.2-0.1-0.3c-0.1-0.3-0.3-0.7-0.4-1c0-0.1-0.1-0.2-0.1-0.3c-0.4-0.9-0.7-1.7-1-2.5c0-0.1-0.1-0.2-0.1-0.3
			c-0.1-0.3-0.3-0.6-0.4-0.9c0-0.1-0.1-0.2-0.1-0.3c-0.3-0.7-0.6-1.4-0.9-2.1c0-0.1-0.1-0.2-0.1-0.2c-0.1-0.3-0.2-0.5-0.3-0.8
			c0-0.1-0.1-0.2-0.1-0.2c-0.3-0.6-0.5-1.2-0.7-1.7c0-0.1-0.1-0.1-0.1-0.2c-0.1-0.2-0.2-0.4-0.3-0.6c0-0.1,0-0.1-0.1-0.2
			c-0.2-0.5-0.4-0.9-0.6-1.3c0,0,0-0.1-0.1-0.1c-0.1-0.2-0.1-0.3-0.2-0.4c0,0,0-0.1-0.1-0.1c-0.2-0.3-0.3-0.6-0.4-0.9c0,0,0,0,0-0.1
			s-0.1-0.2-0.1-0.3c0,0,0,0,0-0.1c-0.2-0.4-0.3-0.6-0.3-0.6l0,0l0,0c0,0-0.4,35,6.2,83.4c-18.5-43.5-35.9-72.4-35.9-72.4
			s5.7,62,29.1,133.2c14.1,42.8,37,96.6,53.1,132.7l-0.3,0.1l8.8,40.2c-4.1,8.5-5.1,22.8-3.6,29.6s6.7,11.9,13.1,13.5l0.2,8.5
			c0,0.9,0.8,1.7,1.7,1.7s1.7-0.8,1.7-1.7l-0.1-7.9c1,0.1,2.1,0,3.1-0.1l1.8,8.3c0.2,0.9,1.1,1.5,2,1.3l0,0c0.9-0.2,1.5-1.1,1.3-2
			l-1.8-8.3l0,0c0.2-0.1,0.4-0.1,0.6-0.2c0.1,0,0.1,0,0.2-0.1c0.2-0.1,0.4-0.2,0.6-0.2c0,0,0.1,0,0.1-0.1c0.2-0.1,0.4-0.2,0.6-0.3
			c0,0,0,0,0.1,0c0.2-0.1,0.4-0.2,0.7-0.3l0,0l0.8,1.8l2.4,5.4c0.3,0.6,0.9,1,1.6,1l0,0c0.2,0,0.3,0,0.5-0.1c0.1,0,0.1,0,0.2-0.1
			l0,0l0,0c0.3-0.1,0.5-0.3,0.7-0.5c0.1-0.1,0.2-0.3,0.2-0.4c0-0.1,0.1-0.2,0.1-0.3c0.1-0.3,0-0.7-0.1-1L177.7,858.2z"/>
		<g>
			<g>
				<path class="st24" d="M124.8,623.3c-16-73.2-42.5-129.5-42.5-129.5s-0.7,62.3,15.3,135.5S151,808.5,151,808.5
					S140.8,696.5,124.8,623.3z"/>
				<g>
					<path class="st25" d="M108.2,629.3c-23.4-71.2-55.6-124.5-55.6-124.5s5.7,62,29.1,133.2s71.4,172.9,71.4,172.9
						S131.5,700.5,108.2,629.3z"/>
					<path class="st25" d="M115.3,627.8c-8.4-74.4-1.3-136.3-1.3-136.3s20.6,58.8,29,133.2s7,186.9,7,186.9S123.6,702.2,115.3,627.8
						z"/>
				</g>
				<path class="st1" d="M174.6,833c2.1,9.7-4,19.2-13.7,21.3s-19.2-4-21.3-13.7s0.8-34.1,10.4-36.2
					C159.7,802.3,172.5,823.4,174.6,833z"/>
				<path class="st1" d="M134.4,770.8l15.6-3.4l16.4,75.1l-15.6,3.4L134.4,770.8z"/>
				<g>
					<path class="st1" d="M163.1,864.2L163.1,864.2c-0.9,0.2-1.8-0.4-2-1.3l-2.5-11.3l3.3-0.7l2.5,11.3
						C164.6,863.1,164,864,163.1,864.2z"/>
					<g>
						<path class="st1" d="M154.6,864.4L154.6,864.4c-0.9,0-1.7-0.7-1.7-1.7l-0.2-11.6l3.4-0.1l0.2,11.6
							C156.3,863.6,155.6,864.3,154.6,864.4z"/>
						<path class="st1" d="M170.9,860.8L170.9,860.8c0.9-0.4,1.3-1.4,0.9-2.2l-4.6-10.6l-3.1,1.4l4.6,10.6
							C169,860.8,170,861.2,170.9,860.8z"/>
					</g>
				</g>
			</g>
			<path class="st7" d="M113.9,491.4c0,0-3.8,33.5-2.5,80.7c-14.2-46.7-29.1-78.4-29.1-78.4l80.8,370.4c0.9-0.2,1.5-1.1,1.3-2
				l-1.8-8.3c1-0.3,2-0.7,2.9-1.2l3.2,7.3c0.4,0.9,1.4,1.3,2.2,0.9c0.9-0.4,1.3-1.4,0.9-2.2l-3.4-7.8c5.1-4.1,7.7-10.9,6.2-17.7
				s-8.3-19.4-15.6-25.4l-8.8-40.2l-0.3,0.1c-0.4-39.5-1.9-98.1-7-142.8C134.6,550.2,113.9,491.4,113.9,491.4z"/>
		</g>
	</g>
	<g>
		<path class="st0" d="M104.6,923.5L104.6,923.5L104.6,923.5c-9.9-2.1-17.7-9.9-19.8-19.8l0,0l0,0c-2.1,9.9-9.9,17.7-19.8,19.8l0,0
			l0,0c9.9,2.1,17.7,9.9,19.8,19.8l0,0l0,0C87,933.4,94.7,925.6,104.6,923.5z"/>
		<path class="st1" d="M102.1,921.3L102.1,921.3L102.1,921.3c-9.9-2.1-17.7-9.9-19.8-19.8l0,0l0,0c-2.1,9.9-9.9,17.7-19.8,19.8l0,0
			l0,0c9.9,2.1,17.7,9.9,19.8,19.8l0,0l0,0C84.5,931.2,92.2,923.4,102.1,921.3z"/>
	</g>
	<g>
		<path class="st0" d="M162.7,343.8L162.7,343.8L162.7,343.8c-9.9-2.1-17.7-9.9-19.8-19.8l0,0l0,0c-2.1,9.9-9.9,17.7-19.8,19.8l0,0
			l0,0c9.9,2.1,17.7,9.9,19.8,19.8l0,0l0,0C145,353.7,152.8,345.9,162.7,343.8z"/>
		<path class="st1" d="M160.2,341.6L160.2,341.6L160.2,341.6c-9.9-2.1-17.7-9.9-19.8-19.8l0,0l0,0c-2.1,9.9-9.9,17.7-19.8,19.8l0,0
			l0,0c9.9,2.1,17.7,9.9,19.8,19.8l0,0l0,0C142.5,351.5,150.3,343.7,160.2,341.6z"/>
	</g>
	<g>
		<path class="st0" d="M1238.1,200.8L1238.1,200.8L1238.1,200.8c-9.9-2.1-17.7-9.9-19.8-19.8l0,0l0,0c-2.1,9.9-9.9,17.7-19.8,19.8
			l0,0l0,0c9.9,2.1,17.7,9.9,19.8,19.8l0,0l0,0C1220.4,210.6,1228.2,202.9,1238.1,200.8z"/>
		<path class="st1" d="M1235.6,198.5L1235.6,198.5L1235.6,198.5c-9.9-2.1-17.7-9.9-19.8-19.8l0,0l0,0c-2.1,9.9-9.9,17.7-19.8,19.8
			l0,0l0,0c9.9,2.1,17.7,9.9,19.8,19.8l0,0l0,0C1217.9,208.4,1225.7,200.7,1235.6,198.5z"/>
	</g>
	<g>
		<path class="st0" d="M1339.2,332.6L1339.2,332.6L1339.2,332.6c-9.9-2.1-17.7-9.9-19.8-19.8l0,0l0,0c-2.1,9.9-9.9,17.7-19.8,19.8
			l0,0l0,0c9.9,2.1,17.7,9.9,19.8,19.8l0,0l0,0C1321.6,342.5,1329.3,334.8,1339.2,332.6z"/>
		<path class="st1" d="M1336.8,330.4L1336.8,330.4L1336.8,330.4c-9.9-2.1-17.7-9.9-19.8-19.8l0,0l0,0c-2.1,9.9-9.9,17.7-19.8,19.8
			l0,0l0,0c9.9,2.1,17.7,9.9,19.8,19.8l0,0l0,0C1319.1,340.3,1326.8,332.5,1336.8,330.4z"/>
	</g>
	<g>
		<path class="st0" d="M1367.4,732.3L1367.4,732.3L1367.4,732.3c-9.9-2.1-17.7-9.9-19.8-19.8l0,0l0,0c-2.1,9.9-9.9,17.7-19.8,19.8
			l0,0l0,0c9.9,2.1,17.7,9.9,19.8,19.8l0,0l0,0C1349.8,742.2,1357.5,734.5,1367.4,732.3z"/>
		<path class="st1" d="M1364.9,730.1L1364.9,730.1L1364.9,730.1c-9.9-2.1-17.7-9.9-19.8-19.8l0,0l0,0c-2.1,9.9-9.9,17.7-19.8,19.8
			l0,0l0,0c9.9,2.1,17.7,9.9,19.8,19.8l0,0l0,0C1347.3,740,1355,732.3,1364.9,730.1z"/>
	</g>
</g>
<path class="st1" d="M305.4,271.2L305.4,271.2L305.4,271.2c-9.9-2.1-17.7-9.9-19.8-19.8l0,0l0,0c-2.1,9.9-9.9,17.7-19.8,19.8l0,0
	l0,0c9.9,2.1,17.7,9.9,19.8,19.8l0,0l0,0C287.8,281.1,295.5,273.4,305.4,271.2z"/>
<path class="st1" d="M1121.3,271.2L1121.3,271.2L1121.3,271.2c-9.9-2.1-17.7-9.9-19.8-19.8l0,0l0,0c-2.1,9.9-9.9,17.7-19.8,19.8l0,0
	l0,0c9.9,2.1,17.7,9.9,19.8,19.8l0,0l0,0C1103.7,281.1,1111.4,273.4,1121.3,271.2z"/>
</svg>
